<svg width="360" height="315" viewBox="0 0 360 315" fill="none" xmlns="http://www.w3.org/2000/svg">
<g filter="url(#filter0_d_6_611)">
<ellipse cx="175.5" cy="163.5" rx="106.5" ry="105.5" fill="#D9D9D9"/>
</g>
<mask id="mask0_6_611" style="mask-type:alpha" maskUnits="userSpaceOnUse" x="69" y="47" width="222" height="222">
<circle cx="180" cy="158" r="111" fill="#D9D9D9"/>
</mask>
<g mask="url(#mask0_6_611)">
<circle cx="180" cy="158" r="111" fill="#D9D9D9"/>
<path d="M139.24 222.84C134.667 223.577 126.094 224.142 122.563 219.752C118 218.049 106.803 207.645 112.505 205.337C116.654 203.658 121.648 200.658 126.035 199.923C129.701 199.31 134.008 204.31 136.477 206.303C140.305 209.392 158.292 211.445 153.532 219.925C151.478 223.584 142.494 222.315 139.24 222.84Z" fill="#B9B9B9" fill-opacity="0.69"/>
<path d="M219.512 206.881C215.121 203.452 207.623 195.478 208.687 183.435C206.495 175.393 206.708 143.868 213.43 145.512C218.321 146.709 225.087 146.296 229.324 149.533C232.864 152.238 231.886 166.256 232.11 172.637C232.456 182.528 245.28 205.397 233.784 216.44C228.823 221.205 222.637 209.321 219.512 206.881Z" fill="#B9B9B9" fill-opacity="0.69"/>
<path d="M82.5444 105.136C82.3345 106.094 82.2182 107.135 82.102 108.171C82.3868 108.439 82.7314 108.721 83.082 109.077C84.3428 110.358 84.7129 110.257 86.3826 110.817C87.4917 111.189 89.3979 111.042 90.4756 111.543C92.0424 112.27 93.1647 118.181 93.776 119.851C94.6502 122.239 96.4725 125.352 93.8917 127.231C91.4093 129.038 87.1892 130.438 86.5051 133.685C85.8106 136.981 87.4732 140.175 86.6348 143.645C85.9919 146.306 85.0078 146.923 82.9758 148.838C81.8746 149.876 78.1415 150.892 76.8236 150.47C73.6886 149.465 75.3003 142.553 74.7037 140.229C73.7698 136.591 73.595 132.499 72.7865 128.777C72.0982 125.608 71.0005 122.69 69.9532 119.625C68.3879 115.043 67.0366 110.387 65.3627 105.815C63.9325 101.908 61.8292 97.8517 61.7428 93.6669C61.6216 87.8021 61.8542 83.5924 64.6307 78.3863C65.9207 75.9674 69.8678 76.1621 70.7516 78.5762C72.0376 82.0887 76.7474 82.2388 77.9788 85.6022C79.6437 90.1499 79.4678 94.7552 81.1458 99.3385C81.6952 100.839 82.6612 102.676 82.6305 104.38C82.6259 104.635 82.5988 104.888 82.5444 105.136Z" fill="#B9B9B9" fill-opacity="0.69"/>
<path d="M197.201 262.359C198.125 262.687 199.144 262.931 200.157 263.175C200.458 262.926 200.781 262.619 201.178 262.315C202.605 261.223 202.551 260.843 203.314 259.256C203.821 258.202 203.912 256.292 204.542 255.285C205.458 253.82 211.463 253.44 213.196 253.041C215.674 252.47 218.989 251.048 220.533 253.842C222.018 256.529 222.884 260.891 226.02 261.972C229.205 263.071 232.58 261.817 235.92 263.08C238.481 264.048 238.97 265.101 240.619 267.355C241.512 268.577 242.057 272.407 241.474 273.662C240.088 276.648 233.43 274.191 231.05 274.495C227.324 274.97 223.241 274.636 219.448 274.976C216.218 275.266 213.187 275.993 210.015 276.651C205.275 277.636 200.486 278.399 195.742 279.492C191.688 280.427 187.402 282.01 183.239 281.577C177.404 280.969 173.256 280.216 168.435 276.815C166.195 275.234 166.878 271.342 169.383 270.765C173.028 269.925 173.761 265.27 177.251 264.465C181.97 263.378 186.518 264.124 191.274 263.028C192.832 262.669 194.775 261.938 196.461 262.18C196.714 262.216 196.962 262.275 197.201 262.359Z" fill="#B9B9B9" fill-opacity="0.69"/>
<path d="M142.787 76.2787C144.496 73.4308 147.169 71.1509 148.92 68.4452C149.2 67.6778 149.291 67.0881 150.34 66.7107C151.667 66.2328 151.96 65.0038 153.157 64.5251C154.111 64.1433 155.838 63.2125 156.654 62.6795C158.71 61.3349 160.894 59.9523 163.113 58.8426C165.169 57.8149 167.512 57.9787 169.767 58.0655C172.238 58.1605 168.761 61.4369 168.796 62.9709C168.85 65.3641 170.544 66.2578 170.544 68.5563C170.544 69.8652 170.8 71.4466 170.52 72.7089C170 75.0487 169.867 76.6057 168.577 78.7557C167.116 81.1916 167.25 84.428 165.979 87.0852C164.792 89.5662 162.071 91.7814 160.49 94.152C158.812 96.6693 156.149 98.7174 153.035 98.7174C148.618 98.7174 145.051 95.5889 142.593 92.1849C140.517 89.3099 140.971 87.719 141.233 84.4382C141.478 81.3699 141.134 79.0335 142.787 76.2787Z" fill="#B9B9B9" fill-opacity="0.69"/>
<ellipse cx="259.5" cy="100" rx="100.5" ry="98" fill="#5B65C1"/>
<path d="M113 147C113 147 101.014 156 88 147" stroke="#4E337A" stroke-width="7" stroke-linecap="round"/>
<path d="M158 186C158 186 131.151 195 102 186" stroke="#4E337A" stroke-width="7" stroke-linecap="round"/>
<path d="M159 147C159 147 147.014 156 134 147" stroke="#4E337A" stroke-width="7" stroke-linecap="round"/>
</g>
<path d="M246 99.2957C255.717 94.1334 258.47 88.7826 259.827 76C261.474 89.1018 264.612 94.1664 274 99.2957C265.799 102.063 262.796 107.497 259.827 123C258.516 108.728 255.318 103.747 246 99.2957Z" fill="#FFC045"/>
<path d="M222.448 143.936C230.384 140.85 232.599 137.743 233.603 130.383C235.069 137.889 237.69 140.759 245.445 143.589C238.733 145.28 236.314 148.439 234.01 157.38C232.809 149.199 230.14 146.377 222.448 143.936Z" fill="#D8F8FF"/>
<path d="M199 75.8435C205.594 71.8894 207.462 67.7909 208.383 58C209.5 68.0354 211.63 71.9147 218 75.8435C212.435 77.9632 210.397 82.1253 208.383 94C207.493 83.0684 205.323 79.2531 199 75.8435Z" fill="#DFAAFF"/>
<defs>
<filter id="filter0_d_6_611" x="66" y="58" width="219" height="218" filterUnits="userSpaceOnUse" color-interpolation-filters="sRGB">
<feFlood flood-opacity="0" result="BackgroundImageFix"/>
<feColorMatrix in="SourceAlpha" type="matrix" values="0 0 0 0 0 0 0 0 0 0 0 0 0 0 0 0 0 0 127 0" result="hardAlpha"/>
<feOffset dy="4"/>
<feGaussianBlur stdDeviation="1.5"/>
<feComposite in2="hardAlpha" operator="out"/>
<feColorMatrix type="matrix" values="0 0 0 0 0 0 0 0 0 0 0 0 0 0 0 0 0 0 0.25 0"/>
<feBlend mode="normal" in2="BackgroundImageFix" result="effect1_dropShadow_6_611"/>
<feBlend mode="normal" in="SourceGraphic" in2="effect1_dropShadow_6_611" result="shape"/>
</filter>
</defs>
</svg>
