<svg width="360" height="316" viewBox="0 0 360 316" fill="none" xmlns="http://www.w3.org/2000/svg">
<g filter="url(#filter0_d_5_44)">
<ellipse cx="179.863" cy="156.409" rx="80.6554" ry="80.7506" fill="#FFC045"/>
</g>
<path d="M132.633 146.951C132.633 146.951 147.265 130.583 163.151 146.951" stroke="#662222" stroke-width="7" stroke-linecap="round"/>
<path d="M212.561 191.328C212.561 191.328 181.207 207.696 147.165 191.328" stroke="#662222" stroke-width="7" stroke-linecap="round"/>
<path d="M191.489 146.951C191.489 146.951 206.121 130.583 222.008 146.951" stroke="#662222" stroke-width="7" stroke-linecap="round"/>
<ellipse cx="123.187" cy="165.139" rx="16.7124" ry="8.72979" fill="#CE3069" fill-opacity="0.32"/>
<ellipse cx="238.72" cy="165.139" rx="16.7124" ry="8.72979" fill="#CE3069" fill-opacity="0.32"/>
<g filter="url(#filter1_d_5_44)">
<path d="M174.802 17.7705C176.138 12.8508 183.117 12.8508 184.453 17.7705L195.653 59.0194C196.517 62.1988 194.123 65.3296 190.828 65.3296H168.427C165.133 65.3296 162.739 62.1988 163.602 59.0194L174.802 17.7705Z" fill="#FFC045"/>
</g>
<g filter="url(#filter2_d_5_44)">
<path d="M184.453 297.229C183.117 302.149 176.138 302.149 174.802 297.229L163.602 255.981C162.739 252.801 165.133 249.67 168.427 249.67H190.828C194.123 249.67 196.517 252.801 195.653 255.981L184.453 297.229Z" fill="#FFC045"/>
</g>
<g filter="url(#filter3_d_5_44)">
<path d="M254.173 275.849C255.485 280.763 249.482 284.276 245.849 280.719L215.081 250.596C212.724 248.289 213.208 244.368 216.056 242.701L235.708 231.202C238.556 229.535 242.206 231.037 243.057 234.226L254.173 275.849Z" fill="#FFC045"/>
</g>
<g filter="url(#filter4_d_5_44)">
<path d="M104.827 39.1514C103.515 34.237 109.518 30.724 113.151 34.2806L143.919 64.4038C146.276 66.7114 145.792 70.6323 142.944 72.2986L123.292 83.7984C120.444 85.4648 116.794 83.9629 115.943 80.7743L104.827 39.1514Z" fill="#FFC045"/>
</g>
<g filter="url(#filter5_d_5_44)">
<path d="M302.037 224.938C305.561 228.605 302.006 234.581 297.108 233.226L255.619 221.757C252.44 220.878 250.966 217.211 252.653 214.375L264.301 194.791C265.988 191.954 269.91 191.504 272.197 193.884L302.037 224.938Z" fill="#FFC045"/>
</g>
<g filter="url(#filter6_d_5_44)">
<path d="M56.9627 90.0619C53.4393 86.3953 56.9936 80.4193 61.8923 81.7735L103.381 93.243C106.56 94.1221 108.034 97.7887 106.347 100.625L94.699 120.209C93.0121 123.046 89.0903 123.496 86.8031 121.116L56.9627 90.0619Z" fill="#FFC045"/>
</g>
<g filter="url(#filter7_d_5_44)">
<path d="M319.292 153.979C324.181 155.37 324.117 162.321 319.203 163.621L277.587 174.632C274.397 175.477 271.278 173.052 271.308 169.752L271.52 146.958C271.551 143.658 274.714 141.292 277.888 142.195L319.292 153.979Z" fill="#FFC045"/>
</g>
<g filter="url(#filter8_d_5_44)">
<path d="M39.7077 161.021C34.8189 159.63 34.8835 152.679 39.7973 151.379L81.4131 140.367C84.6037 139.523 87.7225 141.947 87.6919 145.247L87.4802 168.042C87.4495 171.342 84.2862 173.708 81.1118 172.804L39.7077 161.021Z" fill="#FFC045"/>
</g>
<g filter="url(#filter9_d_5_44)">
<path d="M298.062 83.2798C302.978 81.9881 306.455 88.0088 302.886 91.6303L272.652 122.301C270.335 124.652 266.419 124.152 264.769 121.294L253.371 101.563C251.72 98.7051 253.24 95.0576 256.431 94.2191L298.062 83.2798Z" fill="#FFC045"/>
</g>
<g filter="url(#filter10_d_5_44)">
<path d="M60.9379 231.72C56.0223 233.012 52.5445 226.991 56.1143 223.37L86.3475 192.699C88.6648 190.348 92.5807 190.848 94.2314 193.706L105.629 213.437C107.28 216.295 105.76 219.942 102.569 220.781L60.9379 231.72Z" fill="#FFC045"/>
</g>
<g filter="url(#filter11_d_5_44)">
<path d="M248.8 35.9192C252.517 32.4514 258.434 36.1082 257.004 40.9896L244.888 82.3321C243.96 85.4993 240.275 86.9126 237.468 85.178L218.099 73.2066C215.292 71.472 214.902 67.5405 217.314 65.2904L248.8 35.9192Z" fill="#FFC045"/>
</g>
<g filter="url(#filter12_d_5_44)">
<path d="M110.2 279.081C106.483 282.549 100.566 278.892 101.996 274.01L114.112 232.668C115.04 229.501 118.725 228.087 121.532 229.822L140.901 241.793C143.708 243.528 144.098 247.46 141.686 249.71L110.2 279.081Z" fill="#FFC045"/>
</g>
<defs>
<filter id="filter0_d_5_44" x="95.2079" y="75.6582" width="169.311" height="169.501" filterUnits="userSpaceOnUse" color-interpolation-filters="sRGB">
<feFlood flood-opacity="0" result="BackgroundImageFix"/>
<feColorMatrix in="SourceAlpha" type="matrix" values="0 0 0 0 0 0 0 0 0 0 0 0 0 0 0 0 0 0 127 0" result="hardAlpha"/>
<feOffset dy="4"/>
<feGaussianBlur stdDeviation="2"/>
<feComposite in2="hardAlpha" operator="out"/>
<feColorMatrix type="matrix" values="0 0 0 0 0 0 0 0 0 0 0 0 0 0 0 0 0 0 0.25 0"/>
<feBlend mode="normal" in2="BackgroundImageFix" result="effect1_dropShadow_5_44"/>
<feBlend mode="normal" in="SourceGraphic" in2="effect1_dropShadow_5_44" result="shape"/>
</filter>
<filter id="filter1_d_5_44" x="159.424" y="14.0807" width="40.4065" height="59.2489" filterUnits="userSpaceOnUse" color-interpolation-filters="sRGB">
<feFlood flood-opacity="0" result="BackgroundImageFix"/>
<feColorMatrix in="SourceAlpha" type="matrix" values="0 0 0 0 0 0 0 0 0 0 0 0 0 0 0 0 0 0 127 0" result="hardAlpha"/>
<feOffset dy="4"/>
<feGaussianBlur stdDeviation="2"/>
<feComposite in2="hardAlpha" operator="out"/>
<feColorMatrix type="matrix" values="0 0 0 0 0 0 0 0 0 0 0 0 0 0 0 0 0 0 0.25 0"/>
<feBlend mode="normal" in2="BackgroundImageFix" result="effect1_dropShadow_5_44"/>
<feBlend mode="normal" in="SourceGraphic" in2="effect1_dropShadow_5_44" result="shape"/>
</filter>
<filter id="filter2_d_5_44" x="159.424" y="249.67" width="40.4065" height="59.2489" filterUnits="userSpaceOnUse" color-interpolation-filters="sRGB">
<feFlood flood-opacity="0" result="BackgroundImageFix"/>
<feColorMatrix in="SourceAlpha" type="matrix" values="0 0 0 0 0 0 0 0 0 0 0 0 0 0 0 0 0 0 127 0" result="hardAlpha"/>
<feOffset dy="4"/>
<feGaussianBlur stdDeviation="2"/>
<feComposite in2="hardAlpha" operator="out"/>
<feColorMatrix type="matrix" values="0 0 0 0 0 0 0 0 0 0 0 0 0 0 0 0 0 0 0.25 0"/>
<feBlend mode="normal" in2="BackgroundImageFix" result="effect1_dropShadow_5_44"/>
<feBlend mode="normal" in="SourceGraphic" in2="effect1_dropShadow_5_44" result="shape"/>
</filter>
<filter id="filter3_d_5_44" x="209.578" y="230.514" width="48.7789" height="59.6544" filterUnits="userSpaceOnUse" color-interpolation-filters="sRGB">
<feFlood flood-opacity="0" result="BackgroundImageFix"/>
<feColorMatrix in="SourceAlpha" type="matrix" values="0 0 0 0 0 0 0 0 0 0 0 0 0 0 0 0 0 0 127 0" result="hardAlpha"/>
<feOffset dy="4"/>
<feGaussianBlur stdDeviation="2"/>
<feComposite in2="hardAlpha" operator="out"/>
<feColorMatrix type="matrix" values="0 0 0 0 0 0 0 0 0 0 0 0 0 0 0 0 0 0 0.25 0"/>
<feBlend mode="normal" in2="BackgroundImageFix" result="effect1_dropShadow_5_44"/>
<feBlend mode="normal" in="SourceGraphic" in2="effect1_dropShadow_5_44" result="shape"/>
</filter>
<filter id="filter4_d_5_44" x="100.643" y="32.8312" width="48.7789" height="59.6544" filterUnits="userSpaceOnUse" color-interpolation-filters="sRGB">
<feFlood flood-opacity="0" result="BackgroundImageFix"/>
<feColorMatrix in="SourceAlpha" type="matrix" values="0 0 0 0 0 0 0 0 0 0 0 0 0 0 0 0 0 0 127 0" result="hardAlpha"/>
<feOffset dy="4"/>
<feGaussianBlur stdDeviation="2"/>
<feComposite in2="hardAlpha" operator="out"/>
<feColorMatrix type="matrix" values="0 0 0 0 0 0 0 0 0 0 0 0 0 0 0 0 0 0 0.25 0"/>
<feBlend mode="normal" in2="BackgroundImageFix" result="effect1_dropShadow_5_44"/>
<feBlend mode="normal" in="SourceGraphic" in2="effect1_dropShadow_5_44" result="shape"/>
</filter>
<filter id="filter5_d_5_44" x="247.947" y="192.348" width="59.5109" height="49.0742" filterUnits="userSpaceOnUse" color-interpolation-filters="sRGB">
<feFlood flood-opacity="0" result="BackgroundImageFix"/>
<feColorMatrix in="SourceAlpha" type="matrix" values="0 0 0 0 0 0 0 0 0 0 0 0 0 0 0 0 0 0 127 0" result="hardAlpha"/>
<feOffset dy="4"/>
<feGaussianBlur stdDeviation="2"/>
<feComposite in2="hardAlpha" operator="out"/>
<feColorMatrix type="matrix" values="0 0 0 0 0 0 0 0 0 0 0 0 0 0 0 0 0 0 0.25 0"/>
<feBlend mode="normal" in2="BackgroundImageFix" result="effect1_dropShadow_5_44"/>
<feBlend mode="normal" in="SourceGraphic" in2="effect1_dropShadow_5_44" result="shape"/>
</filter>
<filter id="filter6_d_5_44" x="51.5419" y="81.5775" width="59.5109" height="49.0742" filterUnits="userSpaceOnUse" color-interpolation-filters="sRGB">
<feFlood flood-opacity="0" result="BackgroundImageFix"/>
<feColorMatrix in="SourceAlpha" type="matrix" values="0 0 0 0 0 0 0 0 0 0 0 0 0 0 0 0 0 0 127 0" result="hardAlpha"/>
<feOffset dy="4"/>
<feGaussianBlur stdDeviation="2"/>
<feComposite in2="hardAlpha" operator="out"/>
<feColorMatrix type="matrix" values="0 0 0 0 0 0 0 0 0 0 0 0 0 0 0 0 0 0 0.25 0"/>
<feBlend mode="normal" in2="BackgroundImageFix" result="effect1_dropShadow_5_44"/>
<feBlend mode="normal" in="SourceGraphic" in2="effect1_dropShadow_5_44" result="shape"/>
</filter>
<filter id="filter7_d_5_44" x="267.308" y="142.001" width="59.6157" height="40.8001" filterUnits="userSpaceOnUse" color-interpolation-filters="sRGB">
<feFlood flood-opacity="0" result="BackgroundImageFix"/>
<feColorMatrix in="SourceAlpha" type="matrix" values="0 0 0 0 0 0 0 0 0 0 0 0 0 0 0 0 0 0 127 0" result="hardAlpha"/>
<feOffset dy="4"/>
<feGaussianBlur stdDeviation="2"/>
<feComposite in2="hardAlpha" operator="out"/>
<feColorMatrix type="matrix" values="0 0 0 0 0 0 0 0 0 0 0 0 0 0 0 0 0 0 0.25 0"/>
<feBlend mode="normal" in2="BackgroundImageFix" result="effect1_dropShadow_5_44"/>
<feBlend mode="normal" in="SourceGraphic" in2="effect1_dropShadow_5_44" result="shape"/>
</filter>
<filter id="filter8_d_5_44" x="32.0763" y="140.198" width="59.6158" height="40.8001" filterUnits="userSpaceOnUse" color-interpolation-filters="sRGB">
<feFlood flood-opacity="0" result="BackgroundImageFix"/>
<feColorMatrix in="SourceAlpha" type="matrix" values="0 0 0 0 0 0 0 0 0 0 0 0 0 0 0 0 0 0 127 0" result="hardAlpha"/>
<feOffset dy="4"/>
<feGaussianBlur stdDeviation="2"/>
<feComposite in2="hardAlpha" operator="out"/>
<feColorMatrix type="matrix" values="0 0 0 0 0 0 0 0 0 0 0 0 0 0 0 0 0 0 0.25 0"/>
<feBlend mode="normal" in2="BackgroundImageFix" result="effect1_dropShadow_5_44"/>
<feBlend mode="normal" in="SourceGraphic" in2="effect1_dropShadow_5_44" result="shape"/>
</filter>
<filter id="filter9_d_5_44" x="248.697" y="83.1013" width="59.6533" height="48.6901" filterUnits="userSpaceOnUse" color-interpolation-filters="sRGB">
<feFlood flood-opacity="0" result="BackgroundImageFix"/>
<feColorMatrix in="SourceAlpha" type="matrix" values="0 0 0 0 0 0 0 0 0 0 0 0 0 0 0 0 0 0 127 0" result="hardAlpha"/>
<feOffset dy="4"/>
<feGaussianBlur stdDeviation="2"/>
<feComposite in2="hardAlpha" operator="out"/>
<feColorMatrix type="matrix" values="0 0 0 0 0 0 0 0 0 0 0 0 0 0 0 0 0 0 0.25 0"/>
<feBlend mode="normal" in2="BackgroundImageFix" result="effect1_dropShadow_5_44"/>
<feBlend mode="normal" in="SourceGraphic" in2="effect1_dropShadow_5_44" result="shape"/>
</filter>
<filter id="filter10_d_5_44" x="50.6496" y="191.209" width="59.6533" height="48.6901" filterUnits="userSpaceOnUse" color-interpolation-filters="sRGB">
<feFlood flood-opacity="0" result="BackgroundImageFix"/>
<feColorMatrix in="SourceAlpha" type="matrix" values="0 0 0 0 0 0 0 0 0 0 0 0 0 0 0 0 0 0 127 0" result="hardAlpha"/>
<feOffset dy="4"/>
<feGaussianBlur stdDeviation="2"/>
<feComposite in2="hardAlpha" operator="out"/>
<feColorMatrix type="matrix" values="0 0 0 0 0 0 0 0 0 0 0 0 0 0 0 0 0 0 0.25 0"/>
<feBlend mode="normal" in2="BackgroundImageFix" result="effect1_dropShadow_5_44"/>
<feBlend mode="normal" in="SourceGraphic" in2="effect1_dropShadow_5_44" result="shape"/>
</filter>
<filter id="filter11_d_5_44" x="211.725" y="34.5519" width="49.4976" height="59.3751" filterUnits="userSpaceOnUse" color-interpolation-filters="sRGB">
<feFlood flood-opacity="0" result="BackgroundImageFix"/>
<feColorMatrix in="SourceAlpha" type="matrix" values="0 0 0 0 0 0 0 0 0 0 0 0 0 0 0 0 0 0 127 0" result="hardAlpha"/>
<feOffset dy="4"/>
<feGaussianBlur stdDeviation="2"/>
<feComposite in2="hardAlpha" operator="out"/>
<feColorMatrix type="matrix" values="0 0 0 0 0 0 0 0 0 0 0 0 0 0 0 0 0 0 0.25 0"/>
<feBlend mode="normal" in2="BackgroundImageFix" result="effect1_dropShadow_5_44"/>
<feBlend mode="normal" in="SourceGraphic" in2="effect1_dropShadow_5_44" result="shape"/>
</filter>
<filter id="filter12_d_5_44" x="97.7776" y="229.073" width="49.4976" height="59.3751" filterUnits="userSpaceOnUse" color-interpolation-filters="sRGB">
<feFlood flood-opacity="0" result="BackgroundImageFix"/>
<feColorMatrix in="SourceAlpha" type="matrix" values="0 0 0 0 0 0 0 0 0 0 0 0 0 0 0 0 0 0 127 0" result="hardAlpha"/>
<feOffset dy="4"/>
<feGaussianBlur stdDeviation="2"/>
<feComposite in2="hardAlpha" operator="out"/>
<feColorMatrix type="matrix" values="0 0 0 0 0 0 0 0 0 0 0 0 0 0 0 0 0 0 0.25 0"/>
<feBlend mode="normal" in2="BackgroundImageFix" result="effect1_dropShadow_5_44"/>
<feBlend mode="normal" in="SourceGraphic" in2="effect1_dropShadow_5_44" result="shape"/>
</filter>
</defs>
</svg>
