<svg width="225" height="229" viewBox="0 0 225 229" fill="none" xmlns="http://www.w3.org/2000/svg">
<g filter="url(#filter0_d_6_611)">
<ellipse cx="109.5" cy="116.5" rx="106.5" ry="105.5" fill="#D9D9D9"/>
</g>
<mask id="mask0_6_611" style="mask-type:alpha" maskUnits="userSpaceOnUse" x="3" y="0" width="222" height="222">
<circle cx="114" cy="111" r="111" fill="#D9D9D9"/>
</mask>
<g mask="url(#mask0_6_611)">
<circle cx="114" cy="111" r="111" fill="#D9D9D9"/>
<path d="M73.2398 175.84C68.6666 176.577 60.0939 177.142 56.5633 172.752C52.0001 171.049 40.8026 160.645 46.5049 158.337C50.654 156.658 55.6482 153.658 60.035 152.923C63.7008 152.31 68.0084 157.31 70.4773 159.303C74.3047 162.392 92.2916 164.445 87.5318 172.925C85.4777 176.584 76.4938 175.315 73.2398 175.84Z" fill="#B9B9B9" fill-opacity="0.69"/>
<path d="M153.512 159.881C149.121 156.452 141.623 148.478 142.687 136.435C140.495 128.393 140.708 96.8678 147.43 98.5124C152.321 99.709 159.087 99.2957 163.324 102.533C166.864 105.238 165.886 119.256 166.11 125.637C166.456 135.528 179.28 158.397 167.784 169.44C162.823 174.205 156.637 162.321 153.512 159.881Z" fill="#B9B9B9" fill-opacity="0.69"/>
<path d="M16.5444 58.1364C16.3345 59.0942 16.2182 60.135 16.102 61.1707C16.3868 61.4387 16.7314 61.7211 17.082 62.0773C18.3428 63.3579 18.7129 63.2567 20.3826 63.817C21.4917 64.1892 23.3979 64.0425 24.4756 64.5426C26.0424 65.2696 27.1647 71.1811 27.776 72.851C28.6502 75.2387 30.4725 78.3519 27.8917 80.2306C25.4093 82.0377 21.1892 83.4379 20.5051 86.6847C19.8106 89.9812 21.4732 93.1749 20.6348 96.6453C19.9919 99.3064 19.0078 99.9228 16.9758 101.838C15.8746 102.876 12.1415 103.892 10.8236 103.47C7.68859 102.465 9.30032 95.5535 8.70369 93.2293C7.76979 89.5914 7.59503 85.499 6.78652 81.7767C6.09819 78.6077 5.00049 75.6904 3.95319 72.6249C2.38791 68.0434 1.03657 63.3869 -0.637258 58.815C-2.06754 54.9083 -4.17079 50.8517 -4.25724 46.6669C-4.3784 40.8021 -4.14581 36.5924 -1.36933 31.3863C-0.0793292 28.9674 3.86778 29.1621 4.75161 31.5762C6.03756 35.0887 10.7474 35.2388 11.9788 38.6022C13.6437 43.1499 13.4678 47.7552 15.1458 52.3385C15.6952 53.839 16.6612 55.6764 16.6305 57.3795C16.6259 57.6354 16.5988 57.8882 16.5444 58.1364Z" fill="#B9B9B9" fill-opacity="0.69"/>
<path d="M131.201 215.359C132.125 215.687 133.144 215.931 134.157 216.175C134.458 215.926 134.781 215.619 135.178 215.315C136.605 214.223 136.551 213.843 137.314 212.256C137.821 211.202 137.912 209.292 138.542 208.285C139.458 206.82 145.463 206.44 147.196 206.041C149.674 205.47 152.989 204.048 154.533 206.842C156.018 209.529 156.884 213.891 160.02 214.972C163.205 216.071 166.58 214.817 169.92 216.08C172.481 217.048 172.97 218.101 174.619 220.355C175.512 221.577 176.057 225.407 175.474 226.662C174.088 229.648 167.43 227.191 165.05 227.495C161.324 227.97 157.241 227.636 153.448 227.976C150.218 228.266 147.187 228.993 144.015 229.651C139.275 230.636 134.486 231.399 129.742 232.492C125.688 233.427 121.402 235.01 117.239 234.577C111.404 233.969 107.256 233.216 102.435 229.815C100.195 228.234 100.878 224.342 103.383 223.765C107.028 222.925 107.761 218.27 111.251 217.465C115.97 216.378 120.518 217.124 125.274 216.028C126.832 215.669 128.775 214.938 130.461 215.18C130.714 215.216 130.962 215.275 131.201 215.359Z" fill="#B9B9B9" fill-opacity="0.69"/>
<path d="M76.7872 29.2787C78.496 26.4308 81.1685 24.1509 82.9202 21.4452C83.1996 20.6778 83.2912 20.0881 84.3397 19.7107C85.667 19.2328 85.9599 18.0038 87.1566 17.5251C88.111 17.1433 89.8384 16.2125 90.6536 15.6795C92.71 14.3349 94.8937 12.9523 97.1132 11.8426C99.1685 10.8149 101.512 10.9787 103.767 11.0655C106.238 11.1605 102.761 14.4369 102.796 15.9709C102.85 18.3641 104.544 19.2578 104.544 21.5563C104.544 22.8652 104.8 24.4466 104.52 25.7089C104 28.0487 103.867 29.6057 102.577 31.7557C101.116 34.1916 101.25 37.428 99.9788 40.0852C98.7922 42.5662 96.0709 44.7814 94.4905 47.152C92.8123 49.6693 90.1487 51.7174 87.0352 51.7174C82.6184 51.7174 79.0513 48.5889 76.593 45.1849C74.5165 42.3099 74.9706 40.719 75.233 37.4382C75.4785 34.3699 75.1344 32.0335 76.7872 29.2787Z" fill="#B9B9B9" fill-opacity="0.69"/>
<ellipse cx="193.5" cy="53" rx="100.5" ry="98" fill="#5B65C1"/>
<path d="M47 100C47 100 35.0137 109 22 100" stroke="#4E337A" stroke-width="7" stroke-linecap="round"/>
<path d="M92 139C92 139 65.1507 148 36 139" stroke="#4E337A" stroke-width="7" stroke-linecap="round"/>
<path d="M93 100C93 100 81.0137 109 68 100" stroke="#4E337A" stroke-width="7" stroke-linecap="round"/>
</g>
<path d="M180 52.2957C189.717 47.1334 192.47 41.7826 193.827 29C195.474 42.1018 198.612 47.1664 208 52.2957C199.799 55.0631 196.796 60.497 193.827 76C192.516 61.7282 189.318 56.7472 180 52.2957Z" fill="#FFC045"/>
<path d="M156.448 96.9357C164.384 93.8502 166.599 90.7426 167.603 83.3835C169.069 90.8888 171.69 93.7591 179.445 96.5892C172.733 98.2803 170.314 101.439 168.01 110.38C166.809 102.199 164.14 99.3773 156.448 96.9357Z" fill="#D8F8FF"/>
<path d="M133 28.8435C139.594 24.8894 141.462 20.7909 142.383 11C143.5 21.0354 145.63 24.9147 152 28.8435C146.435 30.9632 144.397 35.1253 142.383 47C141.493 36.0684 139.323 32.2531 133 28.8435Z" fill="#DFAAFF"/>
<defs>
<filter id="filter0_d_6_611" x="0" y="11" width="219" height="218" filterUnits="userSpaceOnUse" color-interpolation-filters="sRGB">
<feFlood flood-opacity="0" result="BackgroundImageFix"/>
<feColorMatrix in="SourceAlpha" type="matrix" values="0 0 0 0 0 0 0 0 0 0 0 0 0 0 0 0 0 0 127 0" result="hardAlpha"/>
<feOffset dy="4"/>
<feGaussianBlur stdDeviation="1.5"/>
<feComposite in2="hardAlpha" operator="out"/>
<feColorMatrix type="matrix" values="0 0 0 0 0 0 0 0 0 0 0 0 0 0 0 0 0 0 0.25 0"/>
<feBlend mode="normal" in2="BackgroundImageFix" result="effect1_dropShadow_6_611"/>
<feBlend mode="normal" in="SourceGraphic" in2="effect1_dropShadow_6_611" result="shape"/>
</filter>
</defs>
</svg>
