<svg width="316" height="311" viewBox="0 0 316 311" fill="none" xmlns="http://www.w3.org/2000/svg">
<g filter="url(#filter0_d_5_44)">
<ellipse cx="157.991" cy="154.423" rx="80.7208" ry="79.7252" fill="#FFC045"/>
</g>
<path d="M110.722 145.085C110.722 145.085 125.366 128.925 141.265 145.085" stroke="#662222" stroke-width="7" stroke-linecap="round"/>
<path d="M190.716 188.898C190.716 188.898 159.336 205.059 125.267 188.898" stroke="#662222" stroke-width="7" stroke-linecap="round"/>
<path d="M169.627 145.085C169.627 145.085 184.271 128.925 200.17 145.085" stroke="#662222" stroke-width="7" stroke-linecap="round"/>
<ellipse cx="101.269" cy="163.042" rx="16.7259" ry="8.61894" fill="#CE3069" fill-opacity="0.32"/>
<ellipse cx="216.896" cy="163.042" rx="16.7259" ry="8.61894" fill="#CE3069" fill-opacity="0.32"/>
<g filter="url(#filter1_d_5_44)">
<path d="M152.935 17.5141C154.283 12.6166 161.228 12.6166 162.576 17.5141L173.767 58.1731C174.644 61.3564 172.248 64.5 168.947 64.5H146.564C143.262 64.5 140.867 61.3565 141.743 58.1731L152.935 17.5141Z" fill="#FFC045"/>
</g>
<g filter="url(#filter2_d_5_44)">
<path d="M162.576 293.486C161.228 298.383 154.283 298.383 152.935 293.486L141.743 252.827C140.867 249.644 143.262 246.5 146.564 246.5H168.947C172.249 246.5 174.644 249.644 173.767 252.827L162.576 293.486Z" fill="#FFC045"/>
</g>
<g filter="url(#filter3_d_5_44)">
<path d="M232.351 272.308C233.674 277.195 227.664 280.664 224.002 277.128L193.287 247.462C190.905 245.161 191.377 241.256 194.238 239.605L213.856 228.28C216.717 226.629 220.394 228.139 221.254 231.318L232.351 272.308Z" fill="#FFC045"/>
</g>
<g filter="url(#filter4_d_5_44)">
<path d="M82.9046 38.6918C81.5818 33.8054 87.5918 30.3361 91.2533 33.8725L121.968 63.5378C124.351 65.8388 123.878 69.7436 121.018 71.3949L101.399 82.7199C98.5383 84.3712 94.8617 82.8615 94.001 79.6821L82.9046 38.6918Z" fill="#FFC045"/>
</g>
<g filter="url(#filter5_d_5_44)">
<path d="M280.142 221.956C283.685 225.594 280.087 231.562 275.161 230.218L233.818 218.944C230.629 218.074 229.163 214.434 230.865 211.611L242.472 192.359C244.174 189.536 248.113 189.074 250.406 191.429L280.142 221.956Z" fill="#FFC045"/>
</g>
<g filter="url(#filter6_d_5_44)">
<path d="M35.1136 89.044C31.5701 85.4062 35.1683 79.438 40.0949 80.7816L81.4373 92.0564C84.6266 92.9262 86.0923 96.5658 84.3901 99.389L72.7832 118.641C71.0811 121.464 67.1429 121.926 64.849 119.571L35.1136 89.044Z" fill="#FFC045"/>
</g>
<g filter="url(#filter7_d_5_44)">
<path d="M297.291 151.955C302.202 153.334 302.137 160.319 297.2 161.607L255.773 172.42C252.586 173.252 249.48 170.83 249.511 167.537L249.722 145.152C249.753 141.858 252.904 139.493 256.074 140.384L297.291 151.955Z" fill="#FFC045"/>
</g>
<g filter="url(#filter8_d_5_44)">
<path d="M17.9641 159.045C13.0531 157.666 13.1189 150.681 18.0549 149.393L59.4828 138.58C62.6695 137.748 65.7753 140.17 65.7443 143.463L65.5338 165.848C65.5028 169.142 62.3519 171.507 59.1814 170.616L17.9641 159.045Z" fill="#FFC045"/>
</g>
<g filter="url(#filter9_d_5_44)">
<path d="M276.112 82.2674C281.055 80.9859 284.577 87.0004 280.987 90.5931L250.861 120.742C248.538 123.068 244.606 122.556 242.941 119.711L231.583 100.316C229.918 97.4708 231.429 93.8501 234.629 93.0206L276.112 82.2674Z" fill="#FFC045"/>
</g>
<g filter="url(#filter10_d_5_44)">
<path d="M39.1434 228.733C34.2001 230.014 30.6783 224 34.2683 220.407L64.3939 190.258C66.7177 187.932 70.6491 188.444 72.3148 191.289L83.672 210.684C85.3378 213.529 83.826 217.15 80.6263 217.979L39.1434 228.733Z" fill="#FFC045"/>
</g>
<g filter="url(#filter11_d_5_44)">
<path d="M226.951 35.4936C230.697 32.0459 236.623 35.659 235.182 40.512L223.088 81.223C222.15 84.38 218.438 85.8002 215.618 84.0809L196.283 72.2925C193.463 70.5731 193.085 66.659 195.522 64.4161L226.951 35.4936Z" fill="#FFC045"/>
</g>
<g filter="url(#filter12_d_5_44)">
<path d="M88.3048 275.506C84.5583 278.954 78.6322 275.341 80.0738 270.488L92.1677 229.777C93.1055 226.62 96.8178 225.2 99.6377 226.919L118.973 238.708C121.793 240.427 122.171 244.341 119.733 246.584L88.3048 275.506Z" fill="#FFC045"/>
</g>
<defs>
<filter id="filter0_d_5_44" x="73.2705" y="74.6974" width="169.442" height="167.45" filterUnits="userSpaceOnUse" color-interpolation-filters="sRGB">
<feFlood flood-opacity="0" result="BackgroundImageFix"/>
<feColorMatrix in="SourceAlpha" type="matrix" values="0 0 0 0 0 0 0 0 0 0 0 0 0 0 0 0 0 0 127 0" result="hardAlpha"/>
<feOffset dy="4"/>
<feGaussianBlur stdDeviation="2"/>
<feComposite in2="hardAlpha" operator="out"/>
<feColorMatrix type="matrix" values="0 0 0 0 0 0 0 0 0 0 0 0 0 0 0 0 0 0 0.25 0"/>
<feBlend mode="normal" in2="BackgroundImageFix" result="effect1_dropShadow_5_44"/>
<feBlend mode="normal" in="SourceGraphic" in2="effect1_dropShadow_5_44" result="shape"/>
</filter>
<filter id="filter1_d_5_44" x="137.561" y="13.841" width="40.3884" height="58.659" filterUnits="userSpaceOnUse" color-interpolation-filters="sRGB">
<feFlood flood-opacity="0" result="BackgroundImageFix"/>
<feColorMatrix in="SourceAlpha" type="matrix" values="0 0 0 0 0 0 0 0 0 0 0 0 0 0 0 0 0 0 127 0" result="hardAlpha"/>
<feOffset dy="4"/>
<feGaussianBlur stdDeviation="2"/>
<feComposite in2="hardAlpha" operator="out"/>
<feColorMatrix type="matrix" values="0 0 0 0 0 0 0 0 0 0 0 0 0 0 0 0 0 0 0.25 0"/>
<feBlend mode="normal" in2="BackgroundImageFix" result="effect1_dropShadow_5_44"/>
<feBlend mode="normal" in="SourceGraphic" in2="effect1_dropShadow_5_44" result="shape"/>
</filter>
<filter id="filter2_d_5_44" x="137.561" y="246.5" width="40.3884" height="58.659" filterUnits="userSpaceOnUse" color-interpolation-filters="sRGB">
<feFlood flood-opacity="0" result="BackgroundImageFix"/>
<feColorMatrix in="SourceAlpha" type="matrix" values="0 0 0 0 0 0 0 0 0 0 0 0 0 0 0 0 0 0 127 0" result="hardAlpha"/>
<feOffset dy="4"/>
<feGaussianBlur stdDeviation="2"/>
<feComposite in2="hardAlpha" operator="out"/>
<feColorMatrix type="matrix" values="0 0 0 0 0 0 0 0 0 0 0 0 0 0 0 0 0 0 0.25 0"/>
<feBlend mode="normal" in2="BackgroundImageFix" result="effect1_dropShadow_5_44"/>
<feBlend mode="normal" in="SourceGraphic" in2="effect1_dropShadow_5_44" result="shape"/>
</filter>
<filter id="filter3_d_5_44" x="187.76" y="227.604" width="48.7773" height="58.9697" filterUnits="userSpaceOnUse" color-interpolation-filters="sRGB">
<feFlood flood-opacity="0" result="BackgroundImageFix"/>
<feColorMatrix in="SourceAlpha" type="matrix" values="0 0 0 0 0 0 0 0 0 0 0 0 0 0 0 0 0 0 127 0" result="hardAlpha"/>
<feOffset dy="4"/>
<feGaussianBlur stdDeviation="2"/>
<feComposite in2="hardAlpha" operator="out"/>
<feColorMatrix type="matrix" values="0 0 0 0 0 0 0 0 0 0 0 0 0 0 0 0 0 0 0.25 0"/>
<feBlend mode="normal" in2="BackgroundImageFix" result="effect1_dropShadow_5_44"/>
<feBlend mode="normal" in="SourceGraphic" in2="effect1_dropShadow_5_44" result="shape"/>
</filter>
<filter id="filter4_d_5_44" x="78.7178" y="32.4266" width="48.7773" height="58.9697" filterUnits="userSpaceOnUse" color-interpolation-filters="sRGB">
<feFlood flood-opacity="0" result="BackgroundImageFix"/>
<feColorMatrix in="SourceAlpha" type="matrix" values="0 0 0 0 0 0 0 0 0 0 0 0 0 0 0 0 0 0 127 0" result="hardAlpha"/>
<feOffset dy="4"/>
<feGaussianBlur stdDeviation="2"/>
<feComposite in2="hardAlpha" operator="out"/>
<feColorMatrix type="matrix" values="0 0 0 0 0 0 0 0 0 0 0 0 0 0 0 0 0 0 0.25 0"/>
<feBlend mode="normal" in2="BackgroundImageFix" result="effect1_dropShadow_5_44"/>
<feBlend mode="normal" in="SourceGraphic" in2="effect1_dropShadow_5_44" result="shape"/>
</filter>
<filter id="filter5_d_5_44" x="226.148" y="189.917" width="59.4179" height="48.4946" filterUnits="userSpaceOnUse" color-interpolation-filters="sRGB">
<feFlood flood-opacity="0" result="BackgroundImageFix"/>
<feColorMatrix in="SourceAlpha" type="matrix" values="0 0 0 0 0 0 0 0 0 0 0 0 0 0 0 0 0 0 127 0" result="hardAlpha"/>
<feOffset dy="4"/>
<feGaussianBlur stdDeviation="2"/>
<feComposite in2="hardAlpha" operator="out"/>
<feColorMatrix type="matrix" values="0 0 0 0 0 0 0 0 0 0 0 0 0 0 0 0 0 0 0.25 0"/>
<feBlend mode="normal" in2="BackgroundImageFix" result="effect1_dropShadow_5_44"/>
<feBlend mode="normal" in="SourceGraphic" in2="effect1_dropShadow_5_44" result="shape"/>
</filter>
<filter id="filter6_d_5_44" x="29.6891" y="80.5882" width="59.4179" height="48.4946" filterUnits="userSpaceOnUse" color-interpolation-filters="sRGB">
<feFlood flood-opacity="0" result="BackgroundImageFix"/>
<feColorMatrix in="SourceAlpha" type="matrix" values="0 0 0 0 0 0 0 0 0 0 0 0 0 0 0 0 0 0 127 0" result="hardAlpha"/>
<feOffset dy="4"/>
<feGaussianBlur stdDeviation="2"/>
<feComposite in2="hardAlpha" operator="out"/>
<feColorMatrix type="matrix" values="0 0 0 0 0 0 0 0 0 0 0 0 0 0 0 0 0 0 0.25 0"/>
<feBlend mode="normal" in2="BackgroundImageFix" result="effect1_dropShadow_5_44"/>
<feBlend mode="normal" in="SourceGraphic" in2="effect1_dropShadow_5_44" result="shape"/>
</filter>
<filter id="filter7_d_5_44" x="245.511" y="140.195" width="59.4279" height="40.3907" filterUnits="userSpaceOnUse" color-interpolation-filters="sRGB">
<feFlood flood-opacity="0" result="BackgroundImageFix"/>
<feColorMatrix in="SourceAlpha" type="matrix" values="0 0 0 0 0 0 0 0 0 0 0 0 0 0 0 0 0 0 127 0" result="hardAlpha"/>
<feOffset dy="4"/>
<feGaussianBlur stdDeviation="2"/>
<feComposite in2="hardAlpha" operator="out"/>
<feColorMatrix type="matrix" values="0 0 0 0 0 0 0 0 0 0 0 0 0 0 0 0 0 0 0.25 0"/>
<feBlend mode="normal" in2="BackgroundImageFix" result="effect1_dropShadow_5_44"/>
<feBlend mode="normal" in="SourceGraphic" in2="effect1_dropShadow_5_44" result="shape"/>
</filter>
<filter id="filter8_d_5_44" x="10.3167" y="138.415" width="59.4279" height="40.3907" filterUnits="userSpaceOnUse" color-interpolation-filters="sRGB">
<feFlood flood-opacity="0" result="BackgroundImageFix"/>
<feColorMatrix in="SourceAlpha" type="matrix" values="0 0 0 0 0 0 0 0 0 0 0 0 0 0 0 0 0 0 127 0" result="hardAlpha"/>
<feOffset dy="4"/>
<feGaussianBlur stdDeviation="2"/>
<feComposite in2="hardAlpha" operator="out"/>
<feColorMatrix type="matrix" values="0 0 0 0 0 0 0 0 0 0 0 0 0 0 0 0 0 0 0.25 0"/>
<feBlend mode="normal" in2="BackgroundImageFix" result="effect1_dropShadow_5_44"/>
<feBlend mode="normal" in="SourceGraphic" in2="effect1_dropShadow_5_44" result="shape"/>
</filter>
<filter id="filter9_d_5_44" x="226.899" y="82.0913" width="59.5565" height="48.1172" filterUnits="userSpaceOnUse" color-interpolation-filters="sRGB">
<feFlood flood-opacity="0" result="BackgroundImageFix"/>
<feColorMatrix in="SourceAlpha" type="matrix" values="0 0 0 0 0 0 0 0 0 0 0 0 0 0 0 0 0 0 127 0" result="hardAlpha"/>
<feOffset dy="4"/>
<feGaussianBlur stdDeviation="2"/>
<feComposite in2="hardAlpha" operator="out"/>
<feColorMatrix type="matrix" values="0 0 0 0 0 0 0 0 0 0 0 0 0 0 0 0 0 0 0.25 0"/>
<feBlend mode="normal" in2="BackgroundImageFix" result="effect1_dropShadow_5_44"/>
<feBlend mode="normal" in="SourceGraphic" in2="effect1_dropShadow_5_44" result="shape"/>
</filter>
<filter id="filter10_d_5_44" x="28.8001" y="188.791" width="59.5565" height="48.1172" filterUnits="userSpaceOnUse" color-interpolation-filters="sRGB">
<feFlood flood-opacity="0" result="BackgroundImageFix"/>
<feColorMatrix in="SourceAlpha" type="matrix" values="0 0 0 0 0 0 0 0 0 0 0 0 0 0 0 0 0 0 127 0" result="hardAlpha"/>
<feOffset dy="4"/>
<feGaussianBlur stdDeviation="2"/>
<feComposite in2="hardAlpha" operator="out"/>
<feColorMatrix type="matrix" values="0 0 0 0 0 0 0 0 0 0 0 0 0 0 0 0 0 0 0.25 0"/>
<feBlend mode="normal" in2="BackgroundImageFix" result="effect1_dropShadow_5_44"/>
<feBlend mode="normal" in="SourceGraphic" in2="effect1_dropShadow_5_44" result="shape"/>
</filter>
<filter id="filter11_d_5_44" x="189.908" y="34.1301" width="49.4952" height="58.6888" filterUnits="userSpaceOnUse" color-interpolation-filters="sRGB">
<feFlood flood-opacity="0" result="BackgroundImageFix"/>
<feColorMatrix in="SourceAlpha" type="matrix" values="0 0 0 0 0 0 0 0 0 0 0 0 0 0 0 0 0 0 127 0" result="hardAlpha"/>
<feOffset dy="4"/>
<feGaussianBlur stdDeviation="2"/>
<feComposite in2="hardAlpha" operator="out"/>
<feColorMatrix type="matrix" values="0 0 0 0 0 0 0 0 0 0 0 0 0 0 0 0 0 0 0.25 0"/>
<feBlend mode="normal" in2="BackgroundImageFix" result="effect1_dropShadow_5_44"/>
<feBlend mode="normal" in="SourceGraphic" in2="effect1_dropShadow_5_44" result="shape"/>
</filter>
<filter id="filter12_d_5_44" x="75.8523" y="226.181" width="49.4952" height="58.6888" filterUnits="userSpaceOnUse" color-interpolation-filters="sRGB">
<feFlood flood-opacity="0" result="BackgroundImageFix"/>
<feColorMatrix in="SourceAlpha" type="matrix" values="0 0 0 0 0 0 0 0 0 0 0 0 0 0 0 0 0 0 127 0" result="hardAlpha"/>
<feOffset dy="4"/>
<feGaussianBlur stdDeviation="2"/>
<feComposite in2="hardAlpha" operator="out"/>
<feColorMatrix type="matrix" values="0 0 0 0 0 0 0 0 0 0 0 0 0 0 0 0 0 0 0.25 0"/>
<feBlend mode="normal" in2="BackgroundImageFix" result="effect1_dropShadow_5_44"/>
<feBlend mode="normal" in="SourceGraphic" in2="effect1_dropShadow_5_44" result="shape"/>
</filter>
</defs>
</svg>
