<svg width="360" height="315" viewBox="0 0 360 315" fill="none" xmlns="http://www.w3.org/2000/svg">
<g filter="url(#filter0_d_37_3)">
<ellipse cx="141.635" cy="138.862" rx="96.1378" ry="96.7716" fill="#D9D9D9"/>
</g>
<mask id="mask0_37_3" style="mask-type:alpha" maskUnits="userSpaceOnUse" x="45" y="32" width="201" height="204">
<ellipse cx="145.697" cy="133.817" rx="100.2" ry="101.817" fill="#D9D9D9"/>
</mask>
<g mask="url(#mask0_37_3)">
<ellipse cx="145.697" cy="133.817" rx="100.2" ry="101.817" fill="#D9D9D9"/>
<path d="M108.903 193.292C104.775 193.968 97.0362 194.486 93.8491 190.459C89.7298 188.897 79.6218 179.354 84.7693 177.237C88.5147 175.697 93.023 172.945 96.983 172.271C100.292 171.708 104.181 176.295 106.409 178.123C109.864 180.957 126.101 182.84 121.804 190.618C119.95 193.975 111.84 192.81 108.903 193.292Z" fill="#B9B9B9" fill-opacity="0.69"/>
<path d="M181.365 178.653C177.401 175.509 170.633 168.194 171.593 157.147C169.615 149.771 169.806 120.854 175.874 122.362C180.29 123.46 186.398 123.081 190.222 126.05C193.418 128.531 192.535 141.39 192.737 147.242C193.05 156.316 204.625 177.292 194.248 187.421C189.77 191.792 184.186 180.891 181.365 178.653Z" fill="#B9B9B9" fill-opacity="0.69"/>
<path d="M57.7239 85.3265C57.5344 86.2051 57.4294 87.1597 57.3245 88.1098C57.5816 88.3556 57.8927 88.6146 58.2092 88.9413C59.3473 90.116 59.6814 90.0232 61.1887 90.5372C62.1899 90.8786 63.9105 90.744 64.8834 91.2027C66.2978 91.8695 67.3108 97.292 67.8627 98.8237C68.6518 101.014 70.2968 103.87 67.9671 105.593C65.7263 107.25 61.9167 108.535 61.2992 111.513C60.6723 114.537 62.1731 117.466 61.4163 120.649C60.8359 123.09 59.9476 123.656 58.1133 125.413C57.1192 126.365 53.7494 127.297 52.5597 126.909C49.7297 125.988 51.1846 119.648 50.646 117.516C49.803 114.179 49.6453 110.425 48.9154 107.011C48.2941 104.104 47.3032 101.428 46.3578 98.6164C44.9448 94.4139 43.7249 90.1427 42.214 85.949C40.9228 82.3655 39.0242 78.6445 38.9462 74.8059C38.8368 69.4263 39.0468 65.5649 41.5531 60.7895C42.7176 58.5708 46.2807 58.7494 47.0785 60.9638C48.2393 64.1856 52.4909 64.3233 53.6025 67.4084C55.1054 71.5799 54.9467 75.8042 56.4614 80.0083C56.9573 81.3847 57.8293 83.0701 57.8016 84.6322C57.7974 84.8669 57.773 85.0989 57.7239 85.3265Z" fill="#B9B9B9" fill-opacity="0.69"/>
<path d="M161.225 229.542C162.059 229.842 162.978 230.066 163.893 230.29C164.165 230.061 164.457 229.78 164.815 229.501C166.103 228.5 166.054 228.151 166.743 226.695C167.201 225.728 167.283 223.976 167.852 223.052C168.678 221.709 174.099 221.361 175.663 220.994C177.9 220.47 180.893 219.166 182.286 221.729C183.627 224.194 184.408 228.195 187.24 229.187C190.115 230.194 193.162 229.045 196.176 230.203C198.488 231.091 198.93 232.057 200.418 234.124C201.224 235.245 201.716 238.758 201.19 239.91C199.939 242.649 193.929 240.395 191.78 240.673C188.417 241.109 184.731 240.802 181.307 241.115C178.391 241.38 175.655 242.047 172.792 242.652C168.513 243.555 164.19 244.254 159.908 245.257C156.248 246.115 152.379 247.567 148.621 247.169C143.354 246.612 139.609 245.921 135.257 242.801C133.235 241.352 133.852 237.781 136.113 237.252C139.403 236.481 140.065 232.211 143.216 231.474C147.476 230.476 151.581 231.16 155.875 230.155C157.28 229.826 159.034 229.156 160.556 229.377C160.785 229.411 161.009 229.464 161.225 229.542Z" fill="#B9B9B9" fill-opacity="0.69"/>
<path d="M112.105 58.8564C113.648 56.2441 116.06 54.1529 117.642 51.671C117.894 50.9671 117.976 50.4262 118.923 50.08C120.121 49.6417 120.385 48.5143 121.466 48.0752C122.327 47.725 123.887 46.8712 124.622 46.3823C126.479 45.149 128.45 43.8808 130.454 42.8628C132.309 41.9202 134.424 42.0704 136.46 42.15C138.691 42.2372 135.552 45.2426 135.583 46.6496C135.632 48.8448 137.162 49.6646 137.162 51.7729C137.162 52.9735 137.393 54.4241 137.14 55.582C136.67 57.7282 136.55 59.1564 135.386 61.1285C134.067 63.3629 134.188 66.3314 133.04 68.7689C131.969 71.0445 129.513 73.0765 128.086 75.251C126.571 77.56 124.167 79.4387 121.356 79.4387C117.369 79.4387 114.149 76.569 111.93 73.4467C110.055 70.8095 110.465 69.3502 110.702 66.3409C110.924 63.5264 110.613 61.3833 112.105 58.8564Z" fill="#B9B9B9" fill-opacity="0.69"/>
<ellipse cx="217.462" cy="80.6151" rx="90.7216" ry="89.8921" fill="#525189"/>
<g filter="url(#filter1_i_37_3)">
<ellipse cx="14.6633" cy="14.3457" rx="14.6633" ry="14.3457" transform="matrix(-0.956455 0.291879 0.346427 0.938077 125.891 100)" fill="white"/>
</g>
<ellipse cx="12.2194" cy="12.4581" rx="12.2194" ry="12.4581" transform="matrix(-0.956455 0.291879 0.346427 0.938077 126.377 104.483)" fill="#1E1E1E"/>
<g filter="url(#filter2_i_37_3)">
<ellipse cx="14.6633" cy="14.3457" rx="14.6633" ry="14.3457" transform="matrix(-0.956455 0.291879 0.346427 0.938077 90.0495 110.938)" fill="white"/>
</g>
<ellipse cx="12.2194" cy="12.4581" rx="12.2194" ry="12.4581" transform="matrix(-0.956455 0.291879 0.346427 0.938077 90.5355 115.42)" fill="#1E1E1E"/>
<g filter="url(#filter3_i_37_3)">
<ellipse cx="16" cy="15" rx="16" ry="15" transform="matrix(-1 2.10209e-10 2.21093e-10 1 132 135)" fill="#A24D00"/>
</g>
</g>
<path d="M109 117.443C111.082 116.016 111.672 114.536 111.963 111C112.316 114.624 112.988 116.025 115 117.443C113.243 118.209 112.599 119.712 111.963 124C111.682 120.052 110.997 118.675 109 117.443Z" fill="#FFC045"/>
<path d="M72.051 131.59C74.0862 130.797 74.6543 129.998 74.9122 128.106C75.2877 130.035 75.9597 130.773 77.9481 131.5C76.227 131.935 75.6063 132.747 75.015 135.046C74.7077 132.943 74.0233 132.218 72.051 131.59Z" fill="#D8F8FF"/>
<path d="M107.037 121.523C108.391 120.957 108.769 120.385 108.939 119.03C109.19 120.412 109.638 120.941 110.963 121.463C109.817 121.773 109.405 122.354 109.013 124C108.806 122.494 108.35 121.974 107.037 121.523Z" fill="#FFA3A3"/>
<path d="M75 127.443C77.7763 126.016 78.5628 124.536 78.9506 121C79.4211 124.624 80.3178 126.025 83 127.443C80.6569 128.209 79.7988 129.712 78.9506 134C78.576 130.052 77.6624 128.675 75 127.443Z" fill="#DFAAFF"/>
<g filter="url(#filter4_d_37_3)">
<rect width="171.785" height="37.8219" rx="18.9109" transform="matrix(-1 0 0 1 308.119 184.4)" fill="#B4B9DE"/>
<ellipse cx="42.3273" cy="37.4251" rx="42.3273" ry="37.4251" transform="matrix(-0.895098 -0.44587 -0.556014 0.831173 347 173.42)" fill="#B4B9DE"/>
<ellipse cx="45.9508" cy="44.8373" rx="45.9508" ry="44.8373" transform="matrix(-1 0 0 1 313.774 132.548)" fill="#B4B9DE"/>
<ellipse cx="45.9508" cy="44.8373" rx="45.9508" ry="44.8373" transform="matrix(-1 0 0 1 204.199 132.548)" fill="#B4B9DE"/>
<ellipse cx="45.9508" cy="44.8373" rx="45.9508" ry="44.8373" transform="matrix(-1 0 0 1 257.926 113.637)" fill="#B4B9DE"/>
</g>
<g filter="url(#filter5_d_37_3)">
<rect x="45.3015" y="243.471" width="142.714" height="32.1344" rx="16.0672" fill="#D6DAFF"/>
<ellipse cx="35.3243" cy="31.5808" rx="35.3243" ry="31.5808" transform="matrix(0.891041 -0.453923 0.547402 0.83687 13 234.142)" fill="#D6DAFF"/>
<ellipse cx="78.7777" cy="237.511" rx="38.1745" ry="38.0948" fill="#D6DAFF"/>
<ellipse cx="169.809" cy="237.511" rx="38.1745" ry="38.0948" fill="#D6DAFF"/>
<ellipse cx="125.174" cy="221.444" rx="38.1745" ry="38.0948" fill="#D6DAFF"/>
</g>
<defs>
<filter id="filter0_d_37_3" x="42.4973" y="42.09" width="198.276" height="200.543" filterUnits="userSpaceOnUse" color-interpolation-filters="sRGB">
<feFlood flood-opacity="0" result="BackgroundImageFix"/>
<feColorMatrix in="SourceAlpha" type="matrix" values="0 0 0 0 0 0 0 0 0 0 0 0 0 0 0 0 0 0 127 0" result="hardAlpha"/>
<feOffset dy="4"/>
<feGaussianBlur stdDeviation="1.5"/>
<feComposite in2="hardAlpha" operator="out"/>
<feColorMatrix type="matrix" values="0 0 0 0 0 0 0 0 0 0 0 0 0 0 0 0 0 0 0.25 0"/>
<feBlend mode="normal" in2="BackgroundImageFix" result="effect1_dropShadow_37_3"/>
<feBlend mode="normal" in="SourceGraphic" in2="effect1_dropShadow_37_3" result="shape"/>
</filter>
<filter id="filter1_i_37_3" x="101.952" y="103.612" width="29.7666" height="30.2506" filterUnits="userSpaceOnUse" color-interpolation-filters="sRGB">
<feFlood flood-opacity="0" result="BackgroundImageFix"/>
<feBlend mode="normal" in="SourceGraphic" in2="BackgroundImageFix" result="shape"/>
<feColorMatrix in="SourceAlpha" type="matrix" values="0 0 0 0 0 0 0 0 0 0 0 0 0 0 0 0 0 0 127 0" result="hardAlpha"/>
<feOffset dy="2"/>
<feGaussianBlur stdDeviation="2"/>
<feComposite in2="hardAlpha" operator="arithmetic" k2="-1" k3="1"/>
<feColorMatrix type="matrix" values="0 0 0 0 0 0 0 0 0 0 0 0 0 0 0 0 0 0 0.25 0"/>
<feBlend mode="normal" in2="shape" result="effect1_innerShadow_37_3"/>
</filter>
<filter id="filter2_i_37_3" x="66.1112" y="114.55" width="29.7666" height="30.2506" filterUnits="userSpaceOnUse" color-interpolation-filters="sRGB">
<feFlood flood-opacity="0" result="BackgroundImageFix"/>
<feBlend mode="normal" in="SourceGraphic" in2="BackgroundImageFix" result="shape"/>
<feColorMatrix in="SourceAlpha" type="matrix" values="0 0 0 0 0 0 0 0 0 0 0 0 0 0 0 0 0 0 127 0" result="hardAlpha"/>
<feOffset dy="2"/>
<feGaussianBlur stdDeviation="2"/>
<feComposite in2="hardAlpha" operator="arithmetic" k2="-1" k3="1"/>
<feColorMatrix type="matrix" values="0 0 0 0 0 0 0 0 0 0 0 0 0 0 0 0 0 0 0.25 0"/>
<feBlend mode="normal" in2="shape" result="effect1_innerShadow_37_3"/>
</filter>
<filter id="filter3_i_37_3" x="100" y="135" width="32" height="34" filterUnits="userSpaceOnUse" color-interpolation-filters="sRGB">
<feFlood flood-opacity="0" result="BackgroundImageFix"/>
<feBlend mode="normal" in="SourceGraphic" in2="BackgroundImageFix" result="shape"/>
<feColorMatrix in="SourceAlpha" type="matrix" values="0 0 0 0 0 0 0 0 0 0 0 0 0 0 0 0 0 0 127 0" result="hardAlpha"/>
<feOffset dy="4"/>
<feGaussianBlur stdDeviation="2"/>
<feComposite in2="hardAlpha" operator="arithmetic" k2="-1" k3="1"/>
<feColorMatrix type="matrix" values="0 0 0 0 0 0 0 0 0 0 0 0 0 0 0 0 0 0 0.25 0"/>
<feBlend mode="normal" in2="shape" result="effect1_innerShadow_37_3"/>
</filter>
<filter id="filter4_d_37_3" x="108.297" y="111.637" width="227.24" height="116.586" filterUnits="userSpaceOnUse" color-interpolation-filters="sRGB">
<feFlood flood-opacity="0" result="BackgroundImageFix"/>
<feColorMatrix in="SourceAlpha" type="matrix" values="0 0 0 0 0 0 0 0 0 0 0 0 0 0 0 0 0 0 127 0" result="hardAlpha"/>
<feOffset dy="2"/>
<feGaussianBlur stdDeviation="2"/>
<feComposite in2="hardAlpha" operator="out"/>
<feColorMatrix type="matrix" values="0 0 0 0 0 0 0 0 0 0 0 0 0 0 0 0 0 0 0.25 0"/>
<feBlend mode="normal" in2="BackgroundImageFix" result="effect1_dropShadow_37_3"/>
<feBlend mode="normal" in="SourceGraphic" in2="effect1_dropShadow_37_3" result="shape"/>
</filter>
<filter id="filter5_d_37_3" x="21.8457" y="181.349" width="190.138" height="100.257" filterUnits="userSpaceOnUse" color-interpolation-filters="sRGB">
<feFlood flood-opacity="0" result="BackgroundImageFix"/>
<feColorMatrix in="SourceAlpha" type="matrix" values="0 0 0 0 0 0 0 0 0 0 0 0 0 0 0 0 0 0 127 0" result="hardAlpha"/>
<feOffset dy="2"/>
<feGaussianBlur stdDeviation="2"/>
<feComposite in2="hardAlpha" operator="out"/>
<feColorMatrix type="matrix" values="0 0 0 0 0 0 0 0 0 0 0 0 0 0 0 0 0 0 0.25 0"/>
<feBlend mode="normal" in2="BackgroundImageFix" result="effect1_dropShadow_37_3"/>
<feBlend mode="normal" in="SourceGraphic" in2="effect1_dropShadow_37_3" result="shape"/>
</filter>
</defs>
</svg>
