<svg width="360" height="315" viewBox="0 0 360 315" fill="none" xmlns="http://www.w3.org/2000/svg">
<g filter="url(#filter0_d_21_2)">
<ellipse cx="67.8227" cy="68.6804" rx="67.8227" ry="68.6804" transform="matrix(0.999926 0.0121599 -0.011856 0.99993 137.145 86.1341)" fill="#FFC045"/>
</g>
<g filter="url(#filter1_d_21_2)">
<path d="M200.486 40.5397C201.87 35.6181 208.876 35.7033 210.143 40.6572L218.169 72.0372C218.984 75.2235 216.554 78.3144 213.266 78.2744L196.472 78.0702C193.184 78.0302 190.828 74.8811 191.718 71.7155L200.486 40.5397Z" fill="#FFC045"/>
</g>
<g filter="url(#filter2_d_21_2)">
<path d="M142.942 57.9445C141.697 52.9912 147.737 49.5146 151.303 53.1317L174.161 76.3179C176.47 78.6593 175.929 82.5871 173.073 84.2315L158.195 92.796C155.338 94.4404 151.729 92.9014 150.923 89.6952L142.942 57.9445Z" fill="#FFC045"/>
</g>
<g filter="url(#filter3_d_21_2)">
<path d="M304.311 213.144C307.773 216.877 304.185 222.816 299.326 221.394L268.177 212.275C265.016 211.35 263.58 207.643 265.288 204.816L274.239 190.001C275.947 187.175 279.86 186.782 282.113 189.211L304.311 213.144Z" fill="#FFC045"/>
</g>
<g filter="url(#filter4_d_21_2)">
<path d="M103.353 99.9733C99.891 96.2401 103.479 90.3012 108.338 91.7235L139.487 100.842C142.648 101.768 144.084 105.475 142.376 108.301L133.425 123.116C131.717 125.943 127.804 126.336 125.551 123.907L103.353 99.9733Z" fill="#FFC045"/>
</g>
<g filter="url(#filter5_d_21_2)">
<path d="M318.844 154.221C323.697 155.682 323.551 162.604 318.641 163.854L287.16 171.871C283.956 172.687 280.855 170.223 280.925 166.918L281.291 149.534C281.36 146.228 284.562 143.901 287.728 144.854L318.844 154.221Z" fill="#FFC045"/>
</g>
<g filter="url(#filter6_d_21_2)">
<path d="M301.617 95.3204C306.524 94.0798 309.894 100.147 306.298 103.749L283.246 126.841C280.906 129.185 277.009 128.648 275.405 125.759L266.997 110.621C265.393 107.733 266.964 104.082 270.157 103.274L301.617 95.3204Z" fill="#FFC045"/>
</g>
<g filter="url(#filter7_d_21_2)">
<path d="M261.22 55.8081C264.954 52.3687 270.819 56.134 269.34 61.0212L259.858 92.3492C258.9 95.5134 255.222 96.8762 252.447 95.0948L237.992 85.8142C235.218 84.0327 234.866 80.0823 237.284 77.8555L261.22 55.8081Z" fill="#FFC045"/>
</g>
<g filter="url(#filter8_i_21_2)">
<ellipse cx="17.7951" cy="18.9776" rx="17.7951" ry="18.9776" transform="matrix(0.946863 0.321915 -0.314617 0.949126 183.067 100)" fill="#D9D9D9"/>
</g>
<ellipse cx="14.8292" cy="16.4805" rx="14.8292" ry="16.4805" transform="matrix(0.946863 0.321915 -0.314617 0.949126 182.483 106)" fill="#1E1E1E"/>
<g filter="url(#filter9_i_21_2)">
<ellipse cx="17.7951" cy="18.9776" rx="17.7951" ry="18.9776" transform="matrix(0.946863 0.321915 -0.314617 0.949126 226.127 114.639)" fill="#D9D9D9"/>
</g>
<ellipse cx="14.8292" cy="16.4805" rx="14.8292" ry="16.4805" transform="matrix(0.946863 0.321915 -0.314617 0.949126 225.543 120.639)" fill="#1E1E1E"/>
<g filter="url(#filter10_i_21_2)">
<ellipse cx="195.318" cy="167" rx="19.2547" ry="20" fill="#A24D00"/>
</g>
<g filter="url(#filter11_d_21_2)">
<rect width="149.603" height="41.2333" rx="20.6166" transform="matrix(-1 0 0 1 304.139 256.146)" fill="#CACACA"/>
<ellipse cx="38.8841" cy="38.4507" rx="38.8841" ry="38.4507" transform="matrix(-0.848542 -0.529128 -0.471302 0.881972 338 244.175)" fill="#CACACA"/>
<ellipse cx="40.0173" cy="48.8814" rx="40.0173" ry="48.8814" transform="matrix(-1 0 0 1 309.064 199.617)" fill="#CACACA"/>
<ellipse cx="40.0173" cy="48.8814" rx="40.0173" ry="48.8814" transform="matrix(-1 0 0 1 213.638 199.617)" fill="#CACACA"/>
<ellipse cx="40.0173" cy="48.8814" rx="40.0173" ry="48.8814" transform="matrix(-1 0 0 1 260.428 179)" fill="#CACACA"/>
</g>
<g filter="url(#filter12_d_21_2)">
<rect width="168.394" height="50.844" rx="25.422" transform="matrix(-1 0 0 1 216.943 226.128)" fill="#D9D9D9"/>
<ellipse cx="44.9773" cy="46.5266" rx="44.9773" ry="46.5266" transform="matrix(-0.825728 -0.564068 -0.438417 0.898772 255.057 211.366)" fill="#D9D9D9"/>
<ellipse cx="45.0437" cy="60.2748" rx="45.0437" ry="60.2748" transform="matrix(-1 0 0 1 222.487 156.422)" fill="#D9D9D9"/>
<ellipse cx="45.0437" cy="60.2748" rx="45.0437" ry="60.2748" transform="matrix(-1 0 0 1 115.075 156.422)" fill="#D9D9D9"/>
<ellipse cx="45.0437" cy="60.2748" rx="45.0437" ry="60.2748" transform="matrix(-1 0 0 1 167.741 131)" fill="#D9D9D9"/>
</g>
<defs>
<filter id="filter0_d_21_2" x="132.326" y="86.9538" width="143.645" height="145.361" filterUnits="userSpaceOnUse" color-interpolation-filters="sRGB">
<feFlood flood-opacity="0" result="BackgroundImageFix"/>
<feColorMatrix in="SourceAlpha" type="matrix" values="0 0 0 0 0 0 0 0 0 0 0 0 0 0 0 0 0 0 127 0" result="hardAlpha"/>
<feOffset dy="4"/>
<feGaussianBlur stdDeviation="2"/>
<feComposite in2="hardAlpha" operator="out"/>
<feColorMatrix type="matrix" values="0 0 0 0 0 0 0 0 0 0 0 0 0 0 0 0 0 0 0.25 0"/>
<feBlend mode="normal" in2="BackgroundImageFix" result="effect1_dropShadow_21_2"/>
<feBlend mode="normal" in="SourceGraphic" in2="effect1_dropShadow_21_2" result="shape"/>
</filter>
<filter id="filter1_d_21_2" x="187.528" y="36.8947" width="34.799" height="49.3801" filterUnits="userSpaceOnUse" color-interpolation-filters="sRGB">
<feFlood flood-opacity="0" result="BackgroundImageFix"/>
<feColorMatrix in="SourceAlpha" type="matrix" values="0 0 0 0 0 0 0 0 0 0 0 0 0 0 0 0 0 0 127 0" result="hardAlpha"/>
<feOffset dy="4"/>
<feGaussianBlur stdDeviation="2"/>
<feComposite in2="hardAlpha" operator="out"/>
<feColorMatrix type="matrix" values="0 0 0 0 0 0 0 0 0 0 0 0 0 0 0 0 0 0 0.25 0"/>
<feBlend mode="normal" in2="BackgroundImageFix" result="effect1_dropShadow_21_2"/>
<feBlend mode="normal" in="SourceGraphic" in2="effect1_dropShadow_21_2" result="shape"/>
</filter>
<filter id="filter2_d_21_2" x="138.776" y="51.6375" width="40.8259" height="49.8245" filterUnits="userSpaceOnUse" color-interpolation-filters="sRGB">
<feFlood flood-opacity="0" result="BackgroundImageFix"/>
<feColorMatrix in="SourceAlpha" type="matrix" values="0 0 0 0 0 0 0 0 0 0 0 0 0 0 0 0 0 0 127 0" result="hardAlpha"/>
<feOffset dy="4"/>
<feGaussianBlur stdDeviation="2"/>
<feComposite in2="hardAlpha" operator="out"/>
<feColorMatrix type="matrix" values="0 0 0 0 0 0 0 0 0 0 0 0 0 0 0 0 0 0 0.25 0"/>
<feBlend mode="normal" in2="BackgroundImageFix" result="effect1_dropShadow_21_2"/>
<feBlend mode="normal" in="SourceGraphic" in2="effect1_dropShadow_21_2" result="shape"/>
</filter>
<filter id="filter3_d_21_2" x="260.561" y="187.61" width="49.127" height="41.9996" filterUnits="userSpaceOnUse" color-interpolation-filters="sRGB">
<feFlood flood-opacity="0" result="BackgroundImageFix"/>
<feColorMatrix in="SourceAlpha" type="matrix" values="0 0 0 0 0 0 0 0 0 0 0 0 0 0 0 0 0 0 127 0" result="hardAlpha"/>
<feOffset dy="4"/>
<feGaussianBlur stdDeviation="2"/>
<feComposite in2="hardAlpha" operator="out"/>
<feColorMatrix type="matrix" values="0 0 0 0 0 0 0 0 0 0 0 0 0 0 0 0 0 0 0.25 0"/>
<feBlend mode="normal" in2="BackgroundImageFix" result="effect1_dropShadow_21_2"/>
<feBlend mode="normal" in="SourceGraphic" in2="effect1_dropShadow_21_2" result="shape"/>
</filter>
<filter id="filter4_d_21_2" x="97.9763" y="91.5079" width="49.127" height="41.9996" filterUnits="userSpaceOnUse" color-interpolation-filters="sRGB">
<feFlood flood-opacity="0" result="BackgroundImageFix"/>
<feColorMatrix in="SourceAlpha" type="matrix" values="0 0 0 0 0 0 0 0 0 0 0 0 0 0 0 0 0 0 127 0" result="hardAlpha"/>
<feOffset dy="4"/>
<feGaussianBlur stdDeviation="2"/>
<feComposite in2="hardAlpha" operator="out"/>
<feColorMatrix type="matrix" values="0 0 0 0 0 0 0 0 0 0 0 0 0 0 0 0 0 0 0.25 0"/>
<feBlend mode="normal" in2="BackgroundImageFix" result="effect1_dropShadow_21_2"/>
<feBlend mode="normal" in="SourceGraphic" in2="effect1_dropShadow_21_2" result="shape"/>
</filter>
<filter id="filter5_d_21_2" x="276.924" y="144.639" width="49.4812" height="35.3897" filterUnits="userSpaceOnUse" color-interpolation-filters="sRGB">
<feFlood flood-opacity="0" result="BackgroundImageFix"/>
<feColorMatrix in="SourceAlpha" type="matrix" values="0 0 0 0 0 0 0 0 0 0 0 0 0 0 0 0 0 0 127 0" result="hardAlpha"/>
<feOffset dy="4"/>
<feGaussianBlur stdDeviation="2"/>
<feComposite in2="hardAlpha" operator="out"/>
<feColorMatrix type="matrix" values="0 0 0 0 0 0 0 0 0 0 0 0 0 0 0 0 0 0 0.25 0"/>
<feBlend mode="normal" in2="BackgroundImageFix" result="effect1_dropShadow_21_2"/>
<feBlend mode="normal" in="SourceGraphic" in2="effect1_dropShadow_21_2" result="shape"/>
</filter>
<filter id="filter6_d_21_2" x="262.362" y="95.1559" width="49.4395" height="41.1532" filterUnits="userSpaceOnUse" color-interpolation-filters="sRGB">
<feFlood flood-opacity="0" result="BackgroundImageFix"/>
<feColorMatrix in="SourceAlpha" type="matrix" values="0 0 0 0 0 0 0 0 0 0 0 0 0 0 0 0 0 0 127 0" result="hardAlpha"/>
<feOffset dy="4"/>
<feGaussianBlur stdDeviation="2"/>
<feComposite in2="hardAlpha" operator="out"/>
<feColorMatrix type="matrix" values="0 0 0 0 0 0 0 0 0 0 0 0 0 0 0 0 0 0 0.25 0"/>
<feBlend mode="normal" in2="BackgroundImageFix" result="effect1_dropShadow_21_2"/>
<feBlend mode="normal" in="SourceGraphic" in2="effect1_dropShadow_21_2" result="shape"/>
</filter>
<filter id="filter7_d_21_2" x="231.671" y="54.4781" width="41.9033" height="49.4073" filterUnits="userSpaceOnUse" color-interpolation-filters="sRGB">
<feFlood flood-opacity="0" result="BackgroundImageFix"/>
<feColorMatrix in="SourceAlpha" type="matrix" values="0 0 0 0 0 0 0 0 0 0 0 0 0 0 0 0 0 0 127 0" result="hardAlpha"/>
<feOffset dy="4"/>
<feGaussianBlur stdDeviation="2"/>
<feComposite in2="hardAlpha" operator="out"/>
<feColorMatrix type="matrix" values="0 0 0 0 0 0 0 0 0 0 0 0 0 0 0 0 0 0 0.25 0"/>
<feBlend mode="normal" in2="BackgroundImageFix" result="effect1_dropShadow_21_2"/>
<feBlend mode="normal" in="SourceGraphic" in2="effect1_dropShadow_21_2" result="shape"/>
</filter>
<filter id="filter8_i_21_2" x="176.065" y="104.834" width="35.7619" height="39.8124" filterUnits="userSpaceOnUse" color-interpolation-filters="sRGB">
<feFlood flood-opacity="0" result="BackgroundImageFix"/>
<feBlend mode="normal" in="SourceGraphic" in2="BackgroundImageFix" result="shape"/>
<feColorMatrix in="SourceAlpha" type="matrix" values="0 0 0 0 0 0 0 0 0 0 0 0 0 0 0 0 0 0 127 0" result="hardAlpha"/>
<feOffset dy="2"/>
<feGaussianBlur stdDeviation="2"/>
<feComposite in2="hardAlpha" operator="arithmetic" k2="-1" k3="1"/>
<feColorMatrix type="matrix" values="0 0 0 0 0 0 0 0 0 0 0 0 0 0 0 0 0 0 0.25 0"/>
<feBlend mode="normal" in2="shape" result="effect1_innerShadow_21_2"/>
</filter>
<filter id="filter9_i_21_2" x="219.125" y="119.474" width="35.7619" height="39.8124" filterUnits="userSpaceOnUse" color-interpolation-filters="sRGB">
<feFlood flood-opacity="0" result="BackgroundImageFix"/>
<feBlend mode="normal" in="SourceGraphic" in2="BackgroundImageFix" result="shape"/>
<feColorMatrix in="SourceAlpha" type="matrix" values="0 0 0 0 0 0 0 0 0 0 0 0 0 0 0 0 0 0 127 0" result="hardAlpha"/>
<feOffset dy="2"/>
<feGaussianBlur stdDeviation="2"/>
<feComposite in2="hardAlpha" operator="arithmetic" k2="-1" k3="1"/>
<feColorMatrix type="matrix" values="0 0 0 0 0 0 0 0 0 0 0 0 0 0 0 0 0 0 0.25 0"/>
<feBlend mode="normal" in2="shape" result="effect1_innerShadow_21_2"/>
</filter>
<filter id="filter10_i_21_2" x="176.063" y="147" width="38.5094" height="44" filterUnits="userSpaceOnUse" color-interpolation-filters="sRGB">
<feFlood flood-opacity="0" result="BackgroundImageFix"/>
<feBlend mode="normal" in="SourceGraphic" in2="BackgroundImageFix" result="shape"/>
<feColorMatrix in="SourceAlpha" type="matrix" values="0 0 0 0 0 0 0 0 0 0 0 0 0 0 0 0 0 0 127 0" result="hardAlpha"/>
<feOffset dy="4"/>
<feGaussianBlur stdDeviation="2"/>
<feComposite in2="hardAlpha" operator="arithmetic" k2="-1" k3="1"/>
<feColorMatrix type="matrix" values="0 0 0 0 0 0 0 0 0 0 0 0 0 0 0 0 0 0 0.25 0"/>
<feBlend mode="normal" in2="shape" result="effect1_innerShadow_21_2"/>
</filter>
<filter id="filter11_d_21_2" x="129.604" y="177" width="198.93" height="126.379" filterUnits="userSpaceOnUse" color-interpolation-filters="sRGB">
<feFlood flood-opacity="0" result="BackgroundImageFix"/>
<feColorMatrix in="SourceAlpha" type="matrix" values="0 0 0 0 0 0 0 0 0 0 0 0 0 0 0 0 0 0 127 0" result="hardAlpha"/>
<feOffset dy="2"/>
<feGaussianBlur stdDeviation="2"/>
<feComposite in2="hardAlpha" operator="out"/>
<feColorMatrix type="matrix" values="0 0 0 0 0 0 0 0 0 0 0 0 0 0 0 0 0 0 0.25 0"/>
<feBlend mode="normal" in2="BackgroundImageFix" result="effect1_dropShadow_21_2"/>
<feBlend mode="normal" in="SourceGraphic" in2="effect1_dropShadow_21_2" result="shape"/>
</filter>
<filter id="filter12_d_21_2" x="20.9874" y="129" width="222.912" height="153.972" filterUnits="userSpaceOnUse" color-interpolation-filters="sRGB">
<feFlood flood-opacity="0" result="BackgroundImageFix"/>
<feColorMatrix in="SourceAlpha" type="matrix" values="0 0 0 0 0 0 0 0 0 0 0 0 0 0 0 0 0 0 127 0" result="hardAlpha"/>
<feOffset dy="2"/>
<feGaussianBlur stdDeviation="2"/>
<feComposite in2="hardAlpha" operator="out"/>
<feColorMatrix type="matrix" values="0 0 0 0 0 0 0 0 0 0 0 0 0 0 0 0 0 0 0.25 0"/>
<feBlend mode="normal" in2="BackgroundImageFix" result="effect1_dropShadow_21_2"/>
<feBlend mode="normal" in="SourceGraphic" in2="effect1_dropShadow_21_2" result="shape"/>
</filter>
</defs>
</svg>
