<svg width="321" height="291" viewBox="0 0 321 291" fill="none" xmlns="http://www.w3.org/2000/svg">
<g filter="url(#filter0_d_21_2)">
<ellipse cx="185.443" cy="134.634" rx="68.6865" ry="68.6805" transform="rotate(0.687967 185.443 134.634)" fill="#FFC045"/>
</g>
<g filter="url(#filter1_d_21_2)">
<path d="M181.802 19.299C183.198 14.3978 190.174 14.4816 191.451 19.4149L199.638 51.0218C200.465 54.2117 198.033 57.3147 194.738 57.2752L177.608 57.0695C174.313 57.0299 171.956 53.8694 172.859 50.7002L181.802 19.299Z" fill="#FFC045"/>
</g>
<g filter="url(#filter2_d_21_2)">
<path d="M123.413 36.7698C122.159 31.8426 128.205 28.406 131.797 32.0042L155.084 55.3272C157.415 57.6623 156.885 61.5756 154.016 63.2063L138.86 71.8213C135.991 73.4519 132.357 71.9056 131.543 68.7078L123.413 36.7698Z" fill="#FFC045"/>
</g>
<g filter="url(#filter3_d_21_2)">
<path d="M286.917 192.182C290.398 195.888 286.768 201.82 281.884 200.408L250.221 191.256C247.051 190.34 245.623 186.658 247.345 183.843L256.444 168.974C258.166 166.159 262.095 165.755 264.354 168.16L286.917 192.182Z" fill="#FFC045"/>
</g>
<g filter="url(#filter4_d_21_2)">
<path d="M83.3285 78.9352C79.8475 75.2292 83.4773 69.297 88.362 70.709L120.024 79.8615C123.194 80.7779 124.623 84.4594 122.901 87.274L113.802 102.144C112.08 104.958 108.151 105.362 105.892 102.957L83.3285 78.9352Z" fill="#FFC045"/>
</g>
<g filter="url(#filter5_d_21_2)">
<path d="M301.584 133.216C306.458 134.665 306.31 141.618 301.379 142.858L269.416 150.895C266.215 151.7 263.127 149.239 263.197 145.94L263.569 128.512C263.639 125.213 266.829 122.885 269.992 123.825L301.584 133.216Z" fill="#FFC045"/>
</g>
<g filter="url(#filter6_d_21_2)">
<path d="M284.201 74.3085C289.135 73.0769 292.544 79.1384 288.929 82.714L265.498 105.891C263.152 108.211 259.241 107.663 257.623 104.787L249.077 89.5931C247.46 86.7171 249.023 83.0905 252.224 82.2913L284.201 74.3085Z" fill="#FFC045"/>
</g>
<g filter="url(#filter7_d_21_2)">
<path d="M243.371 34.6907C247.133 31.2696 253.006 34.9932 251.516 39.8544L241.858 71.364C240.891 74.5189 237.187 75.8885 234.4 74.1217L219.676 64.7873C216.889 63.0204 216.548 59.0862 218.989 56.8659L243.371 34.6907Z" fill="#FFC045"/>
</g>
<g filter="url(#filter8_i_21_2)">
<ellipse cx="175.111" cy="102.741" rx="18" ry="19" transform="rotate(18.5571 175.111 102.741)" fill="#D9D9D9"/>
</g>
<ellipse cx="172.471" cy="105.416" rx="15" ry="16.5" transform="rotate(18.5571 172.471 105.416)" fill="#1E1E1E"/>
<g filter="url(#filter9_i_21_2)">
<ellipse cx="218.719" cy="117.38" rx="18" ry="19" transform="rotate(18.5571 218.719 117.38)" fill="#D9D9D9"/>
</g>
<ellipse cx="216.08" cy="120.055" rx="15" ry="16.5" transform="rotate(18.5571 216.08 120.055)" fill="#1E1E1E"/>
<g filter="url(#filter10_i_21_2)">
<ellipse cx="176.5" cy="146" rx="19.5" ry="20" fill="#A24D00"/>
</g>
<g filter="url(#filter11_d_21_2)">
<rect width="151.509" height="41.2333" rx="20.6166" transform="matrix(-1 0 0 1 286.708 235.146)" fill="#D9D9D9"/>
<ellipse cx="39.2414" cy="38.56" rx="39.2414" ry="38.56" transform="matrix(-0.851527 -0.524311 -0.475953 0.879471 321 223.175)" fill="#D9D9D9"/>
<ellipse cx="40.5271" cy="48.8814" rx="40.5271" ry="48.8814" transform="matrix(-1 0 0 1 291.696 178.617)" fill="#D9D9D9"/>
<ellipse cx="40.5271" cy="48.8814" rx="40.5271" ry="48.8814" transform="matrix(-1 0 0 1 195.054 178.617)" fill="#D9D9D9"/>
<ellipse cx="40.5271" cy="48.8814" rx="40.5271" ry="48.8814" transform="matrix(-1 0 0 1 242.44 158)" fill="#D9D9D9"/>
</g>
<g filter="url(#filter12_d_21_2)">
<rect width="170.539" height="50.844" rx="25.422" transform="matrix(-1 0 0 1 198.401 205.128)" fill="#D9D9D9"/>
<ellipse cx="45.3688" cy="46.6411" rx="45.3688" ry="46.6411" transform="matrix(-0.829032 -0.559201 -0.442912 0.896565 237 190.366)" fill="#D9D9D9"/>
<ellipse cx="45.6175" cy="60.2748" rx="45.6175" ry="60.2748" transform="matrix(-1 0 0 1 204.015 135.422)" fill="#D9D9D9"/>
<ellipse cx="45.6175" cy="60.2748" rx="45.6175" ry="60.2748" transform="matrix(-1 0 0 1 95.235 135.422)" fill="#D9D9D9"/>
<ellipse cx="45.6175" cy="60.2748" rx="45.6175" ry="60.2748" transform="matrix(-1 0 0 1 148.572 110)" fill="#D9D9D9"/>
</g>
<defs>
<filter id="filter0_d_21_2" x="112.757" y="65.9538" width="145.373" height="145.361" filterUnits="userSpaceOnUse" color-interpolation-filters="sRGB">
<feFlood flood-opacity="0" result="BackgroundImageFix"/>
<feColorMatrix in="SourceAlpha" type="matrix" values="0 0 0 0 0 0 0 0 0 0 0 0 0 0 0 0 0 0 127 0" result="hardAlpha"/>
<feOffset dy="4"/>
<feGaussianBlur stdDeviation="2"/>
<feComposite in2="hardAlpha" operator="out"/>
<feColorMatrix type="matrix" values="0 0 0 0 0 0 0 0 0 0 0 0 0 0 0 0 0 0 0.25 0"/>
<feBlend mode="normal" in2="BackgroundImageFix" result="effect1_dropShadow_21_2"/>
<feBlend mode="normal" in="SourceGraphic" in2="effect1_dropShadow_21_2" result="shape"/>
</filter>
<filter id="filter1_d_21_2" x="168.665" y="15.6686" width="35.1361" height="49.6069" filterUnits="userSpaceOnUse" color-interpolation-filters="sRGB">
<feFlood flood-opacity="0" result="BackgroundImageFix"/>
<feColorMatrix in="SourceAlpha" type="matrix" values="0 0 0 0 0 0 0 0 0 0 0 0 0 0 0 0 0 0 127 0" result="hardAlpha"/>
<feOffset dy="4"/>
<feGaussianBlur stdDeviation="2"/>
<feComposite in2="hardAlpha" operator="out"/>
<feColorMatrix type="matrix" values="0 0 0 0 0 0 0 0 0 0 0 0 0 0 0 0 0 0 0.25 0"/>
<feBlend mode="normal" in2="BackgroundImageFix" result="effect1_dropShadow_21_2"/>
<feBlend mode="normal" in="SourceGraphic" in2="effect1_dropShadow_21_2" result="shape"/>
</filter>
<filter id="filter2_d_21_2" x="119.245" y="30.5134" width="41.3012" height="49.9641" filterUnits="userSpaceOnUse" color-interpolation-filters="sRGB">
<feFlood flood-opacity="0" result="BackgroundImageFix"/>
<feColorMatrix in="SourceAlpha" type="matrix" values="0 0 0 0 0 0 0 0 0 0 0 0 0 0 0 0 0 0 127 0" result="hardAlpha"/>
<feOffset dy="4"/>
<feGaussianBlur stdDeviation="2"/>
<feComposite in2="hardAlpha" operator="out"/>
<feColorMatrix type="matrix" values="0 0 0 0 0 0 0 0 0 0 0 0 0 0 0 0 0 0 0.25 0"/>
<feBlend mode="normal" in2="BackgroundImageFix" result="effect1_dropShadow_21_2"/>
<feBlend mode="normal" in="SourceGraphic" in2="effect1_dropShadow_21_2" result="shape"/>
</filter>
<filter id="filter3_d_21_2" x="242.607" y="166.583" width="49.6903" height="42.0385" filterUnits="userSpaceOnUse" color-interpolation-filters="sRGB">
<feFlood flood-opacity="0" result="BackgroundImageFix"/>
<feColorMatrix in="SourceAlpha" type="matrix" values="0 0 0 0 0 0 0 0 0 0 0 0 0 0 0 0 0 0 127 0" result="hardAlpha"/>
<feOffset dy="4"/>
<feGaussianBlur stdDeviation="2"/>
<feComposite in2="hardAlpha" operator="out"/>
<feColorMatrix type="matrix" values="0 0 0 0 0 0 0 0 0 0 0 0 0 0 0 0 0 0 0.25 0"/>
<feBlend mode="normal" in2="BackgroundImageFix" result="effect1_dropShadow_21_2"/>
<feBlend mode="normal" in="SourceGraphic" in2="effect1_dropShadow_21_2" result="shape"/>
</filter>
<filter id="filter4_d_21_2" x="77.9482" y="70.496" width="49.6904" height="42.0385" filterUnits="userSpaceOnUse" color-interpolation-filters="sRGB">
<feFlood flood-opacity="0" result="BackgroundImageFix"/>
<feColorMatrix in="SourceAlpha" type="matrix" values="0 0 0 0 0 0 0 0 0 0 0 0 0 0 0 0 0 0 127 0" result="hardAlpha"/>
<feOffset dy="4"/>
<feGaussianBlur stdDeviation="2"/>
<feComposite in2="hardAlpha" operator="out"/>
<feColorMatrix type="matrix" values="0 0 0 0 0 0 0 0 0 0 0 0 0 0 0 0 0 0 0.25 0"/>
<feBlend mode="normal" in2="BackgroundImageFix" result="effect1_dropShadow_21_2"/>
<feBlend mode="normal" in="SourceGraphic" in2="effect1_dropShadow_21_2" result="shape"/>
</filter>
<filter id="filter5_d_21_2" x="259.196" y="123.615" width="49.9635" height="35.4337" filterUnits="userSpaceOnUse" color-interpolation-filters="sRGB">
<feFlood flood-opacity="0" result="BackgroundImageFix"/>
<feColorMatrix in="SourceAlpha" type="matrix" values="0 0 0 0 0 0 0 0 0 0 0 0 0 0 0 0 0 0 127 0" result="hardAlpha"/>
<feOffset dy="4"/>
<feGaussianBlur stdDeviation="2"/>
<feComposite in2="hardAlpha" operator="out"/>
<feColorMatrix type="matrix" values="0 0 0 0 0 0 0 0 0 0 0 0 0 0 0 0 0 0 0.25 0"/>
<feBlend mode="normal" in2="BackgroundImageFix" result="effect1_dropShadow_21_2"/>
<feBlend mode="normal" in="SourceGraphic" in2="effect1_dropShadow_21_2" result="shape"/>
</filter>
<filter id="filter6_d_21_2" x="244.432" y="74.146" width="50.0038" height="41.1906" filterUnits="userSpaceOnUse" color-interpolation-filters="sRGB">
<feFlood flood-opacity="0" result="BackgroundImageFix"/>
<feColorMatrix in="SourceAlpha" type="matrix" values="0 0 0 0 0 0 0 0 0 0 0 0 0 0 0 0 0 0 127 0" result="hardAlpha"/>
<feOffset dy="4"/>
<feGaussianBlur stdDeviation="2"/>
<feComposite in2="hardAlpha" operator="out"/>
<feColorMatrix type="matrix" values="0 0 0 0 0 0 0 0 0 0 0 0 0 0 0 0 0 0 0.25 0"/>
<feBlend mode="normal" in2="BackgroundImageFix" result="effect1_dropShadow_21_2"/>
<feBlend mode="normal" in="SourceGraphic" in2="effect1_dropShadow_21_2" result="shape"/>
</filter>
<filter id="filter7_d_21_2" x="213.353" y="33.364" width="42.4002" height="49.5376" filterUnits="userSpaceOnUse" color-interpolation-filters="sRGB">
<feFlood flood-opacity="0" result="BackgroundImageFix"/>
<feColorMatrix in="SourceAlpha" type="matrix" values="0 0 0 0 0 0 0 0 0 0 0 0 0 0 0 0 0 0 127 0" result="hardAlpha"/>
<feOffset dy="4"/>
<feGaussianBlur stdDeviation="2"/>
<feComposite in2="hardAlpha" operator="out"/>
<feColorMatrix type="matrix" values="0 0 0 0 0 0 0 0 0 0 0 0 0 0 0 0 0 0 0.25 0"/>
<feBlend mode="normal" in2="BackgroundImageFix" result="effect1_dropShadow_21_2"/>
<feBlend mode="normal" in="SourceGraphic" in2="effect1_dropShadow_21_2" result="shape"/>
</filter>
<filter id="filter8_i_21_2" x="157.002" y="83.8344" width="36.2175" height="39.8124" filterUnits="userSpaceOnUse" color-interpolation-filters="sRGB">
<feFlood flood-opacity="0" result="BackgroundImageFix"/>
<feBlend mode="normal" in="SourceGraphic" in2="BackgroundImageFix" result="shape"/>
<feColorMatrix in="SourceAlpha" type="matrix" values="0 0 0 0 0 0 0 0 0 0 0 0 0 0 0 0 0 0 127 0" result="hardAlpha"/>
<feOffset dy="2"/>
<feGaussianBlur stdDeviation="2"/>
<feComposite in2="hardAlpha" operator="arithmetic" k2="-1" k3="1"/>
<feColorMatrix type="matrix" values="0 0 0 0 0 0 0 0 0 0 0 0 0 0 0 0 0 0 0.25 0"/>
<feBlend mode="normal" in2="shape" result="effect1_innerShadow_21_2"/>
</filter>
<filter id="filter9_i_21_2" x="200.61" y="98.4739" width="36.2175" height="39.8124" filterUnits="userSpaceOnUse" color-interpolation-filters="sRGB">
<feFlood flood-opacity="0" result="BackgroundImageFix"/>
<feBlend mode="normal" in="SourceGraphic" in2="BackgroundImageFix" result="shape"/>
<feColorMatrix in="SourceAlpha" type="matrix" values="0 0 0 0 0 0 0 0 0 0 0 0 0 0 0 0 0 0 127 0" result="hardAlpha"/>
<feOffset dy="2"/>
<feGaussianBlur stdDeviation="2"/>
<feComposite in2="hardAlpha" operator="arithmetic" k2="-1" k3="1"/>
<feColorMatrix type="matrix" values="0 0 0 0 0 0 0 0 0 0 0 0 0 0 0 0 0 0 0.25 0"/>
<feBlend mode="normal" in2="shape" result="effect1_innerShadow_21_2"/>
</filter>
<filter id="filter10_i_21_2" x="157" y="126" width="39" height="44" filterUnits="userSpaceOnUse" color-interpolation-filters="sRGB">
<feFlood flood-opacity="0" result="BackgroundImageFix"/>
<feBlend mode="normal" in="SourceGraphic" in2="BackgroundImageFix" result="shape"/>
<feColorMatrix in="SourceAlpha" type="matrix" values="0 0 0 0 0 0 0 0 0 0 0 0 0 0 0 0 0 0 127 0" result="hardAlpha"/>
<feOffset dy="4"/>
<feGaussianBlur stdDeviation="2"/>
<feComposite in2="hardAlpha" operator="arithmetic" k2="-1" k3="1"/>
<feColorMatrix type="matrix" values="0 0 0 0 0 0 0 0 0 0 0 0 0 0 0 0 0 0 0.25 0"/>
<feBlend mode="normal" in2="shape" result="effect1_innerShadow_21_2"/>
</filter>
<filter id="filter11_d_21_2" x="110" y="156" width="201.363" height="126.379" filterUnits="userSpaceOnUse" color-interpolation-filters="sRGB">
<feFlood flood-opacity="0" result="BackgroundImageFix"/>
<feColorMatrix in="SourceAlpha" type="matrix" values="0 0 0 0 0 0 0 0 0 0 0 0 0 0 0 0 0 0 127 0" result="hardAlpha"/>
<feOffset dy="2"/>
<feGaussianBlur stdDeviation="2"/>
<feComposite in2="hardAlpha" operator="out"/>
<feColorMatrix type="matrix" values="0 0 0 0 0 0 0 0 0 0 0 0 0 0 0 0 0 0 0.25 0"/>
<feBlend mode="normal" in2="BackgroundImageFix" result="effect1_dropShadow_21_2"/>
<feBlend mode="normal" in="SourceGraphic" in2="effect1_dropShadow_21_2" result="shape"/>
</filter>
<filter id="filter12_d_21_2" x="1.52588e-05" y="108" width="225.65" height="153.972" filterUnits="userSpaceOnUse" color-interpolation-filters="sRGB">
<feFlood flood-opacity="0" result="BackgroundImageFix"/>
<feColorMatrix in="SourceAlpha" type="matrix" values="0 0 0 0 0 0 0 0 0 0 0 0 0 0 0 0 0 0 127 0" result="hardAlpha"/>
<feOffset dy="2"/>
<feGaussianBlur stdDeviation="2"/>
<feComposite in2="hardAlpha" operator="out"/>
<feColorMatrix type="matrix" values="0 0 0 0 0 0 0 0 0 0 0 0 0 0 0 0 0 0 0.25 0"/>
<feBlend mode="normal" in2="BackgroundImageFix" result="effect1_dropShadow_21_2"/>
<feBlend mode="normal" in="SourceGraphic" in2="effect1_dropShadow_21_2" result="shape"/>
</filter>
</defs>
</svg>
