<svg width="360" height="323" viewBox="0 0 360 323" fill="none" xmlns="http://www.w3.org/2000/svg">
<ellipse cx="56.0883" cy="41.2034" rx="56.0883" ry="41.2034" transform="matrix(0.802309 0.599274 -0.503275 0.862647 252.487 11.4249)" fill="#974D68"/>
<ellipse cx="24.2963" cy="30.0386" rx="24.2963" ry="30.0386" transform="matrix(0.802309 0.599274 -0.503275 0.862647 225.355 29.3514)" fill="#29557E"/>
<ellipse cx="24.2963" cy="30.0386" rx="24.2963" ry="30.0386" transform="matrix(0.802309 0.599274 -0.503275 0.862647 299.595 84.8039)" fill="#29557E"/>
<ellipse cx="24.2963" cy="30.0386" rx="24.2963" ry="30.0386" transform="matrix(0.802309 0.599274 -0.503275 0.862647 275.54 66.8361)" fill="#29557E"/>
<ellipse cx="24.2963" cy="30.0386" rx="24.2963" ry="30.0386" transform="matrix(0.802309 0.599274 -0.503275 0.862647 249.825 47.6291)" fill="#29557E"/>
<g filter="url(#filter0_d_21_3)">
<path d="M254.852 56.6899C258.445 53.1622 264.259 57.1449 262.838 62.1597L261.069 68.4026C260.16 71.6108 256.612 72.9346 253.901 71.0774L251.198 69.226C248.486 67.3689 248.082 63.3381 250.38 61.0814L254.852 56.6899Z" fill="#FFC045"/>
</g>
<path d="M267.99 59.2913C263.524 56.7309 259.938 57.4066 255.076 58.7695L254.154 53.5509L251.387 48.3324" stroke="#974D68" stroke-width="3" stroke-linecap="round"/>
<rect x="254.154" y="49.898" width="11.0689" height="7.30596" fill="#974D68"/>
<g filter="url(#filter1_d_21_3)">
<ellipse cx="35.7702" cy="38.6188" rx="35.7702" ry="38.6188" transform="matrix(0.999908 0.0135857 -0.0106117 0.999944 195.55 67.687)" fill="#FFC045"/>
</g>
<g filter="url(#filter2_d_21_3)">
<path d="M226.544 51.1791C227.866 46.1578 235.025 46.2551 236.24 51.3109L237.631 57.0972C238.393 60.2656 235.973 63.2961 232.717 63.2519L229.813 63.2124C226.557 63.1682 224.202 60.0728 225.031 56.926L226.544 51.1791Z" fill="#FFC045"/>
</g>
<g filter="url(#filter3_d_21_3)">
<path d="M200.655 60.5398C199.455 55.4578 205.453 51.7789 208.886 55.4916L213.147 60.1003C215.34 62.4723 214.754 66.4719 211.961 68.1846L209.19 69.8842C206.398 71.5969 202.912 70.0948 202.145 66.8481L200.655 60.5398Z" fill="#FFC045"/>
</g>
<g filter="url(#filter4_d_21_3)">
<path d="M278.514 133.143C281.881 137.014 278.503 142.979 273.779 141.502L267.588 139.566C264.474 138.592 263.002 134.755 264.635 131.87L266.413 128.732C268.047 125.847 271.879 125.517 274.099 128.069L278.514 133.143Z" fill="#FFC045"/>
</g>
<g filter="url(#filter5_d_21_3)">
<path d="M182.967 81.4754C179.6 77.6044 182.978 71.6396 187.701 73.1166L193.893 75.0527C197.007 76.0265 198.479 79.8636 196.845 82.7483L195.068 85.8865C193.434 88.7712 189.602 89.1019 187.382 86.5498L182.967 81.4754Z" fill="#FFC045"/>
</g>
<g filter="url(#filter6_d_21_3)">
<path d="M284.395 103.781C289.141 105.307 289.011 112.067 284.211 113.368L277.785 115.109C274.563 115.981 271.395 113.505 271.459 110.164L271.532 106.38C271.596 103.039 274.857 100.714 278.042 101.738L284.395 103.781Z" fill="#FFC045"/>
</g>
<g filter="url(#filter7_d_21_3)">
<path d="M274.895 74.8966C279.666 73.6135 282.84 79.7036 279.346 83.4354L274.761 88.332C272.456 90.7941 268.634 90.3107 267.097 87.3627L265.422 84.1497C263.886 81.2017 265.488 77.4268 268.636 76.5802L274.895 74.8966Z" fill="#FFC045"/>
</g>
<g filter="url(#filter8_i_21_3)">
<ellipse cx="8.91712" cy="9.69249" rx="8.91712" ry="9.69249" transform="matrix(0.945187 0.329251 -0.307577 0.950635 241.069 84.5374)" fill="#D9D9D9"/>
</g>
<ellipse cx="6.39599" cy="7.11204" rx="6.39599" ry="7.11204" transform="matrix(0.948308 0.320081 -0.316451 0.947694 241.501 87.2635)" fill="#1E1E1E"/>
<g filter="url(#filter9_i_21_3)">
<ellipse cx="8.91712" cy="9.69249" rx="8.91712" ry="9.69249" transform="matrix(0.945187 0.329251 -0.307577 0.950635 217.686 78.0781)" fill="#D9D9D9"/>
</g>
<ellipse cx="6.39599" cy="7.11204" rx="6.39599" ry="7.11204" transform="matrix(0.948308 0.320081 -0.316451 0.947694 220.501 81.9426)" fill="#1E1E1E"/>
<path d="M254.154 59.2913C268.1 44.0588 277.633 41.7406 296.585 44.6794" stroke="#B5758C" stroke-width="3" stroke-linecap="round"/>
<path d="M238.213 38.9549C260.919 28.4618 273.708 30.8927 296.585 44.6794" stroke="#B5758C" stroke-width="3" stroke-linecap="round"/>
<path d="M303.964 94.7774C310.265 74.976 308.014 64.2764 297.427 45.6507" stroke="#B5758C" stroke-width="3" stroke-linecap="round"/>
<path d="M326.102 105.215C325.357 76.7102 318.052 63.9268 297.196 44.7625" stroke="#B5758C" stroke-width="3" stroke-linecap="round"/>
<path d="M251.94 123.618L297.695 45.192" stroke="#B5758C" stroke-width="3" stroke-linecap="round"/>
<g filter="url(#filter10_d_21_3)">
<rect width="199.165" height="53.7135" rx="26.8568" transform="matrix(-1 0 0 1 269.032 174.4)" fill="#D9D9D9"/>
<ellipse cx="51.4569" cy="50.3352" rx="51.4569" ry="50.3352" transform="matrix(-0.853639 -0.520865 -0.479297 0.877653 314.111 158.805)" fill="#D9D9D9"/>
<ellipse cx="53.2747" cy="63.6765" rx="53.2747" ry="63.6765" transform="matrix(-1 0 0 1 275.589 100.76)" fill="#D9D9D9"/>
<ellipse cx="53.2747" cy="63.6765" rx="53.2747" ry="63.6765" transform="matrix(-1 0 0 1 148.549 100.76)" fill="#D9D9D9"/>
<ellipse cx="53.2747" cy="63.6765" rx="53.2747" ry="63.6765" transform="matrix(-1 0 0 1 210.84 73.9033)" fill="#D9D9D9"/>
</g>
<path d="M95.0385 238.809L106.622 271.355H83.4555L95.0385 238.809Z" fill="#D8F8FF"/>
<ellipse cx="95.0385" cy="274.185" rx="11.7288" ry="13.6786" fill="#D8F8FF"/>
<path d="M104 274.561C102.578 279.192 101.32 281.136 98 283.074" stroke="white" stroke-width="4" stroke-linecap="round"/>
<path d="M135.624 265.946L147.207 298.491H124.041L135.624 265.946Z" fill="#D8F8FF"/>
<ellipse cx="135.624" cy="301.321" rx="11.7288" ry="13.6786" fill="#D8F8FF"/>
<path d="M144 302.23C142.578 306.861 141.32 308.805 138 310.743" stroke="white" stroke-width="4" stroke-linecap="round"/>
<path d="M174.366 238.809L185.949 271.355H162.783L174.366 238.809Z" fill="#D8F8FF"/>
<ellipse cx="174.366" cy="274.185" rx="11.7288" ry="13.6786" fill="#D8F8FF"/>
<path d="M183 274.561C181.578 279.192 180.32 281.136 177 283.074" stroke="white" stroke-width="4" stroke-linecap="round"/>
<path d="M213.107 265.946L224.69 298.491H201.524L213.107 265.946Z" fill="#D8F8FF"/>
<ellipse cx="213.107" cy="301.321" rx="11.7288" ry="13.6786" fill="#D8F8FF"/>
<path d="M222 302.23C220.578 306.861 219.32 308.805 216 310.743" stroke="white" stroke-width="4" stroke-linecap="round"/>
<path d="M251.848 238.809L263.431 271.355H240.265L251.848 238.809Z" fill="#D8F8FF"/>
<ellipse cx="251.848" cy="274.185" rx="11.7288" ry="13.6786" fill="#D8F8FF"/>
<path d="M260 274.561C258.578 279.192 257.32 281.136 254 283.074" stroke="white" stroke-width="4" stroke-linecap="round"/>
<defs>
<filter id="filter0_d_21_3" x="244.882" y="55.3471" width="22.1753" height="24.5791" filterUnits="userSpaceOnUse" color-interpolation-filters="sRGB">
<feFlood flood-opacity="0" result="BackgroundImageFix"/>
<feColorMatrix in="SourceAlpha" type="matrix" values="0 0 0 0 0 0 0 0 0 0 0 0 0 0 0 0 0 0 127 0" result="hardAlpha"/>
<feOffset dy="4"/>
<feGaussianBlur stdDeviation="2"/>
<feComposite in2="hardAlpha" operator="out"/>
<feColorMatrix type="matrix" values="0 0 0 0 0 0 0 0 0 0 0 0 0 0 0 0 0 0 0.25 0"/>
<feBlend mode="normal" in2="BackgroundImageFix" result="effect1_dropShadow_21_3"/>
<feBlend mode="normal" in="SourceGraphic" in2="effect1_dropShadow_21_3" result="shape"/>
</filter>
<filter id="filter1_d_21_3" x="191.138" y="68.1698" width="79.5386" height="85.2394" filterUnits="userSpaceOnUse" color-interpolation-filters="sRGB">
<feFlood flood-opacity="0" result="BackgroundImageFix"/>
<feColorMatrix in="SourceAlpha" type="matrix" values="0 0 0 0 0 0 0 0 0 0 0 0 0 0 0 0 0 0 127 0" result="hardAlpha"/>
<feOffset dy="4"/>
<feGaussianBlur stdDeviation="2"/>
<feComposite in2="hardAlpha" operator="out"/>
<feColorMatrix type="matrix" values="0 0 0 0 0 0 0 0 0 0 0 0 0 0 0 0 0 0 0.25 0"/>
<feBlend mode="normal" in2="BackgroundImageFix" result="effect1_dropShadow_21_3"/>
<feBlend mode="normal" in="SourceGraphic" in2="effect1_dropShadow_21_3" result="shape"/>
</filter>
<filter id="filter2_d_21_3" x="220.863" y="47.4656" width="20.9086" height="23.7868" filterUnits="userSpaceOnUse" color-interpolation-filters="sRGB">
<feFlood flood-opacity="0" result="BackgroundImageFix"/>
<feColorMatrix in="SourceAlpha" type="matrix" values="0 0 0 0 0 0 0 0 0 0 0 0 0 0 0 0 0 0 127 0" result="hardAlpha"/>
<feOffset dy="4"/>
<feGaussianBlur stdDeviation="2"/>
<feComposite in2="hardAlpha" operator="out"/>
<feColorMatrix type="matrix" values="0 0 0 0 0 0 0 0 0 0 0 0 0 0 0 0 0 0 0.25 0"/>
<feBlend mode="normal" in2="BackgroundImageFix" result="effect1_dropShadow_21_3"/>
<feBlend mode="normal" in="SourceGraphic" in2="effect1_dropShadow_21_3" result="shape"/>
</filter>
<filter id="filter3_d_21_3" x="196.499" y="53.9797" width="21.9837" height="24.6195" filterUnits="userSpaceOnUse" color-interpolation-filters="sRGB">
<feFlood flood-opacity="0" result="BackgroundImageFix"/>
<feColorMatrix in="SourceAlpha" type="matrix" values="0 0 0 0 0 0 0 0 0 0 0 0 0 0 0 0 0 0 127 0" result="hardAlpha"/>
<feOffset dy="4"/>
<feGaussianBlur stdDeviation="2"/>
<feComposite in2="hardAlpha" operator="out"/>
<feColorMatrix type="matrix" values="0 0 0 0 0 0 0 0 0 0 0 0 0 0 0 0 0 0 0.25 0"/>
<feBlend mode="normal" in2="BackgroundImageFix" result="effect1_dropShadow_21_3"/>
<feBlend mode="normal" in="SourceGraphic" in2="effect1_dropShadow_21_3" result="shape"/>
</filter>
<filter id="filter4_d_21_3" x="259.961" y="126.344" width="23.913" height="23.3876" filterUnits="userSpaceOnUse" color-interpolation-filters="sRGB">
<feFlood flood-opacity="0" result="BackgroundImageFix"/>
<feColorMatrix in="SourceAlpha" type="matrix" values="0 0 0 0 0 0 0 0 0 0 0 0 0 0 0 0 0 0 127 0" result="hardAlpha"/>
<feOffset dy="4"/>
<feGaussianBlur stdDeviation="2"/>
<feComposite in2="hardAlpha" operator="out"/>
<feColorMatrix type="matrix" values="0 0 0 0 0 0 0 0 0 0 0 0 0 0 0 0 0 0 0.25 0"/>
<feBlend mode="normal" in2="BackgroundImageFix" result="effect1_dropShadow_21_3"/>
<feBlend mode="normal" in="SourceGraphic" in2="effect1_dropShadow_21_3" result="shape"/>
</filter>
<filter id="filter5_d_21_3" x="177.607" y="72.8864" width="23.913" height="23.3876" filterUnits="userSpaceOnUse" color-interpolation-filters="sRGB">
<feFlood flood-opacity="0" result="BackgroundImageFix"/>
<feColorMatrix in="SourceAlpha" type="matrix" values="0 0 0 0 0 0 0 0 0 0 0 0 0 0 0 0 0 0 127 0" result="hardAlpha"/>
<feOffset dy="4"/>
<feGaussianBlur stdDeviation="2"/>
<feComposite in2="hardAlpha" operator="out"/>
<feColorMatrix type="matrix" values="0 0 0 0 0 0 0 0 0 0 0 0 0 0 0 0 0 0 0.25 0"/>
<feBlend mode="normal" in2="BackgroundImageFix" result="effect1_dropShadow_21_3"/>
<feBlend mode="normal" in="SourceGraphic" in2="effect1_dropShadow_21_3" result="shape"/>
</filter>
<filter id="filter6_d_21_3" x="267.458" y="101.494" width="24.4251" height="21.7907" filterUnits="userSpaceOnUse" color-interpolation-filters="sRGB">
<feFlood flood-opacity="0" result="BackgroundImageFix"/>
<feColorMatrix in="SourceAlpha" type="matrix" values="0 0 0 0 0 0 0 0 0 0 0 0 0 0 0 0 0 0 127 0" result="hardAlpha"/>
<feOffset dy="4"/>
<feGaussianBlur stdDeviation="2"/>
<feComposite in2="hardAlpha" operator="out"/>
<feColorMatrix type="matrix" values="0 0 0 0 0 0 0 0 0 0 0 0 0 0 0 0 0 0 0.25 0"/>
<feBlend mode="normal" in2="BackgroundImageFix" result="effect1_dropShadow_21_3"/>
<feBlend mode="normal" in="SourceGraphic" in2="effect1_dropShadow_21_3" result="shape"/>
</filter>
<filter id="filter7_d_21_3" x="260.832" y="74.7221" width="23.995" height="23.1905" filterUnits="userSpaceOnUse" color-interpolation-filters="sRGB">
<feFlood flood-opacity="0" result="BackgroundImageFix"/>
<feColorMatrix in="SourceAlpha" type="matrix" values="0 0 0 0 0 0 0 0 0 0 0 0 0 0 0 0 0 0 127 0" result="hardAlpha"/>
<feOffset dy="4"/>
<feGaussianBlur stdDeviation="2"/>
<feComposite in2="hardAlpha" operator="out"/>
<feColorMatrix type="matrix" values="0 0 0 0 0 0 0 0 0 0 0 0 0 0 0 0 0 0 0.25 0"/>
<feBlend mode="normal" in2="BackgroundImageFix" result="effect1_dropShadow_21_3"/>
<feBlend mode="normal" in="SourceGraphic" in2="effect1_dropShadow_21_3" result="shape"/>
</filter>
<filter id="filter8_i_21_3" x="237.574" y="87.0143" width="17.8849" height="21.3462" filterUnits="userSpaceOnUse" color-interpolation-filters="sRGB">
<feFlood flood-opacity="0" result="BackgroundImageFix"/>
<feBlend mode="normal" in="SourceGraphic" in2="BackgroundImageFix" result="shape"/>
<feColorMatrix in="SourceAlpha" type="matrix" values="0 0 0 0 0 0 0 0 0 0 0 0 0 0 0 0 0 0 127 0" result="hardAlpha"/>
<feOffset dy="2"/>
<feGaussianBlur stdDeviation="2"/>
<feComposite in2="hardAlpha" operator="arithmetic" k2="-1" k3="1"/>
<feColorMatrix type="matrix" values="0 0 0 0 0 0 0 0 0 0 0 0 0 0 0 0 0 0 0.25 0"/>
<feBlend mode="normal" in2="shape" result="effect1_innerShadow_21_3"/>
</filter>
<filter id="filter9_i_21_3" x="214.19" y="80.555" width="17.8849" height="21.3461" filterUnits="userSpaceOnUse" color-interpolation-filters="sRGB">
<feFlood flood-opacity="0" result="BackgroundImageFix"/>
<feBlend mode="normal" in="SourceGraphic" in2="BackgroundImageFix" result="shape"/>
<feColorMatrix in="SourceAlpha" type="matrix" values="0 0 0 0 0 0 0 0 0 0 0 0 0 0 0 0 0 0 127 0" result="hardAlpha"/>
<feOffset dy="2"/>
<feGaussianBlur stdDeviation="2"/>
<feComposite in2="hardAlpha" operator="arithmetic" k2="-1" k3="1"/>
<feColorMatrix type="matrix" values="0 0 0 0 0 0 0 0 0 0 0 0 0 0 0 0 0 0 0.25 0"/>
<feBlend mode="normal" in2="shape" result="effect1_innerShadow_21_3"/>
</filter>
<filter id="filter10_d_21_3" x="38" y="71.9033" width="262.184" height="162.21" filterUnits="userSpaceOnUse" color-interpolation-filters="sRGB">
<feFlood flood-opacity="0" result="BackgroundImageFix"/>
<feColorMatrix in="SourceAlpha" type="matrix" values="0 0 0 0 0 0 0 0 0 0 0 0 0 0 0 0 0 0 127 0" result="hardAlpha"/>
<feOffset dy="2"/>
<feGaussianBlur stdDeviation="2"/>
<feComposite in2="hardAlpha" operator="out"/>
<feColorMatrix type="matrix" values="0 0 0 0 0 0 0 0 0 0 0 0 0 0 0 0 0 0 0.25 0"/>
<feBlend mode="normal" in2="BackgroundImageFix" result="effect1_dropShadow_21_3"/>
<feBlend mode="normal" in="SourceGraphic" in2="effect1_dropShadow_21_3" result="shape"/>
</filter>
</defs>
</svg>
