<svg width="360" height="322" viewBox="0 0 360 322" fill="none" xmlns="http://www.w3.org/2000/svg">
<ellipse cx="54.9406" cy="39.3394" rx="54.9406" ry="39.3394" transform="matrix(-0.734334 0.679799 0.63649 0.770438 78.1011 9.63831)" fill="#4D9750"/>
<ellipse cx="23.7992" cy="28.6797" rx="23.7992" ry="28.6797" transform="matrix(-0.734334 0.679799 0.63649 0.770438 107.252 22.6825)" fill="#1C317A"/>
<ellipse cx="23.7992" cy="28.6797" rx="23.7992" ry="28.6797" transform="matrix(-0.734334 0.679799 0.63649 0.770438 40.692 84.2992)" fill="#1C317A"/>
<ellipse cx="23.7992" cy="28.6797" rx="23.7992" ry="28.6797" transform="matrix(-0.734334 0.679799 0.63649 0.770438 62.2589 64.334)" fill="#1C317A"/>
<ellipse cx="23.7992" cy="28.6797" rx="23.7992" ry="28.6797" transform="matrix(-0.734334 0.679799 0.63649 0.770438 85.3129 42.9919)" fill="#1C317A"/>
<g filter="url(#filter0_d_37_5)">
<ellipse cx="147.16" cy="97.8998" rx="73.1601" ry="68.7333" fill="#D9D9D9"/>
</g>
<mask id="mask0_37_5" style="mask-type:alpha" maskUnits="userSpaceOnUse" x="74" y="22" width="153" height="145">
<ellipse cx="150.251" cy="94.3165" rx="76.2513" ry="72.3165" fill="#D9D9D9"/>
</mask>
<g mask="url(#mask0_37_5)">
<ellipse cx="150.251" cy="94.3165" rx="76.2513" ry="72.3165" fill="#D9D9D9"/>
<path d="M122.251 136.56C119.11 137.04 113.221 137.408 110.795 134.548C107.661 133.438 99.9684 126.66 103.886 125.156C106.736 124.062 110.167 122.108 113.18 121.63C115.698 121.23 118.657 124.487 120.353 125.786C122.983 127.799 135.339 129.136 132.069 134.661C130.658 137.045 124.486 136.218 122.251 136.56Z" fill="#B9B9B9" fill-opacity="0.69"/>
<path d="M177.394 126.163C174.378 123.929 169.227 118.733 169.958 110.888C168.452 105.648 168.598 85.1094 173.216 86.1809C176.576 86.9605 181.224 86.6912 184.134 88.8002C186.566 90.5626 185.895 99.6954 186.048 103.852C186.286 110.297 195.095 125.196 187.198 132.39C183.79 135.495 179.541 127.752 177.394 126.163Z" fill="#B9B9B9" fill-opacity="0.69"/>
<path d="M83.3043 59.8759C83.1601 60.4999 83.0802 61.1779 83.0004 61.8527C83.1961 62.0273 83.4328 62.2113 83.6737 62.4434C84.5397 63.2777 84.794 63.2117 85.941 63.5768C86.7029 63.8193 88.0123 63.7237 88.7527 64.0495C89.829 64.5231 90.5999 68.3745 91.0199 69.4624C91.6204 71.0181 92.8722 73.0463 91.0993 74.2703C89.3941 75.4476 86.495 76.3598 86.0251 78.4751C85.548 80.6228 86.6901 82.7035 86.1142 84.9645C85.6725 86.6982 84.9966 87.0998 83.6007 88.3476C82.8442 89.0238 80.2798 89.6858 79.3744 89.4106C77.2208 88.7562 78.328 84.2531 77.9181 82.7389C77.2766 80.3688 77.1566 77.7026 76.6012 75.2776C76.1283 73.213 75.3742 71.3123 74.6548 69.3152C73.5795 66.3303 72.6512 63.2966 71.5014 60.318C70.5189 57.7728 69.074 55.1299 69.0147 52.4035C68.9314 48.5826 69.0912 45.8399 70.9985 42.4482C71.8847 40.8723 74.5961 40.9991 75.2033 42.5719C76.0867 44.8603 79.3221 44.9581 80.168 47.1493C81.3117 50.1122 81.1909 53.1126 82.3435 56.0985C82.7209 57.0761 83.3846 58.2732 83.3635 59.3828C83.3603 59.5495 83.3417 59.7142 83.3043 59.8759Z" fill="#B9B9B9" fill-opacity="0.69"/>
<path d="M162.068 162.307C162.703 162.52 163.402 162.679 164.098 162.838C164.305 162.676 164.527 162.476 164.8 162.278C165.78 161.566 165.743 161.319 166.267 160.285C166.615 159.598 166.678 158.354 167.111 157.697C167.74 156.743 171.865 156.496 173.055 156.236C174.757 155.864 177.035 154.937 178.095 156.758C179.115 158.508 179.71 161.35 181.865 162.055C184.053 162.77 186.371 161.954 188.666 162.776C190.425 163.407 190.761 164.093 191.893 165.561C192.507 166.357 192.881 168.853 192.481 169.671C191.529 171.616 186.955 170.015 185.32 170.213C182.76 170.523 179.956 170.305 177.35 170.526C175.131 170.715 173.049 171.189 170.87 171.618C167.614 172.259 164.324 172.757 161.065 173.469C158.28 174.078 155.336 175.109 152.476 174.827C148.468 174.431 145.618 173.94 142.306 171.724C140.768 170.695 141.237 168.159 142.958 167.783C145.462 167.235 145.966 164.203 148.363 163.679C151.605 162.97 154.729 163.456 157.996 162.742C159.066 162.508 160.401 162.032 161.559 162.19C161.733 162.214 161.903 162.252 162.068 162.307Z" fill="#B9B9B9" fill-opacity="0.69"/>
<path d="M124.688 41.0751C125.862 39.2197 127.698 37.7343 128.901 35.9716C129.093 35.4716 129.156 35.0874 129.876 34.8415C130.788 34.5302 130.989 33.7295 131.811 33.4176C132.467 33.1689 133.654 32.5625 134.214 32.2152C135.626 31.3392 137.126 30.4385 138.651 29.7154C140.063 29.0459 141.672 29.1526 143.222 29.2092C144.919 29.2711 142.531 31.4057 142.555 32.4051C142.592 33.9642 143.756 34.5465 143.756 36.0439C143.756 36.8967 143.932 37.927 143.739 38.7494C143.382 40.2737 143.291 41.2882 142.404 42.6889C141.4 44.2759 141.492 46.3843 140.619 48.1156C139.804 49.7319 137.935 51.1751 136.849 52.7195C135.696 54.3596 133.867 55.6939 131.728 55.6939C128.694 55.6939 126.243 53.6557 124.555 51.438C123.128 49.5649 123.44 48.5284 123.62 46.391C123.789 44.392 123.553 42.8698 124.688 41.0751Z" fill="#B9B9B9" fill-opacity="0.69"/>
<ellipse cx="204.864" cy="56.5295" rx="69.0384" ry="63.847" fill="#1C317A"/>
<g filter="url(#filter1_i_37_5)">
<ellipse cx="11.0972" cy="10.2793" rx="11.0972" ry="10.2793" transform="matrix(-0.96175 0.27393 0.367918 0.929858 135.179 70.2979)" fill="white"/>
</g>
<ellipse cx="9.24767" cy="8.92672" rx="9.24767" ry="8.92672" transform="matrix(-0.96175 0.27393 0.367918 0.929858 135.548 73.4818)" fill="#1E1E1E"/>
<g filter="url(#filter2_i_37_5)">
<ellipse cx="11.0972" cy="10.2793" rx="11.0972" ry="10.2793" transform="matrix(-0.96175 0.27393 0.367918 0.929858 107.904 78.0665)" fill="white"/>
</g>
<ellipse cx="9.24767" cy="8.92672" rx="9.24767" ry="8.92672" transform="matrix(-0.96175 0.27393 0.367918 0.929858 108.274 81.2504)" fill="#1E1E1E"/>
</g>
<path d="M122.503 82.4609C123.891 81.4724 124.284 80.4477 124.478 78C124.713 80.5089 125.162 81.4787 126.503 82.4609C125.331 82.9908 124.902 84.0313 124.478 87C124.291 84.2671 123.834 83.3133 122.503 82.4609Z" fill="#FFC045"/>
<path d="M94.2071 92.7353C95.7559 92.1717 96.1882 91.6042 96.3845 90.2606C96.6702 91.6308 97.1816 92.1548 98.6948 92.6712C97.385 92.9802 96.9127 93.5569 96.4628 95.1895C96.2288 93.6958 95.708 93.1808 94.2071 92.7353Z" fill="#D8F8FF"/>
<path d="M120.831 85.5851C121.862 85.1826 122.149 84.7766 122.279 83.8145C122.47 84.796 122.811 85.1715 123.819 85.5425C122.947 85.7628 122.633 86.1755 122.335 87.3443C122.178 86.2745 121.831 85.9053 120.831 85.5851Z" fill="#FFA3A3"/>
<path d="M96.5027 89.4609C98.5849 88.4724 99.1748 87.4477 99.4656 85C99.8185 87.5089 100.491 88.4787 102.503 89.4609C100.745 89.9908 100.102 91.0313 99.4656 94C99.1847 91.2671 98.4995 90.3133 96.5027 89.4609Z" fill="#DFAAFF"/>
<path d="M81.7345 53.8153C65.6439 41.9635 55.8832 41.3667 37.6341 47.1775" stroke="#67CB6B" stroke-width="3" stroke-linecap="round"/>
<path d="M94.3513 32.3646C70.3428 26.3336 58.0962 30.6699 37.6342 47.1775" stroke="#67CB6B" stroke-width="3" stroke-linecap="round"/>
<path d="M38.0194 94.827C28.773 77.4943 29.3559 67.2079 36.9518 48.2152" stroke="#67CB6B" stroke-width="3" stroke-linecap="round"/>
<path d="M17.7742 108.109C14.1478 81.5598 19.3985 68.5184 37.0436 47.3541" stroke="#67CB6B" stroke-width="3" stroke-linecap="round"/>
<path d="M93.7619 113.095L36.6174 47.8336" stroke="#67CB6B" stroke-width="3" stroke-linecap="round"/>
<g filter="url(#filter3_d_37_5)">
<rect width="227.63" height="47.6749" rx="23.8375" transform="matrix(-1 0 0 1 293.479 176.198)" fill="#D6DAFF"/>
<ellipse cx="55.5544" cy="47.9348" rx="55.5544" ry="47.9348" transform="matrix(-0.903679 -0.42821 -0.575228 0.817993 345 162.357)" fill="#D6DAFF"/>
<ellipse cx="60.8886" cy="56.5179" rx="60.8886" ry="56.5179" transform="matrix(-1 0 0 1 300.973 110.838)" fill="#D6DAFF"/>
<ellipse cx="60.8886" cy="56.5179" rx="60.8886" ry="56.5179" transform="matrix(-1 0 0 1 155.777 110.838)" fill="#D6DAFF"/>
<ellipse cx="60.8886" cy="56.5179" rx="60.8886" ry="56.5179" transform="matrix(-1 0 0 1 226.97 87)" fill="#D6DAFF"/>
</g>
<path d="M93.6457 241L106.329 272.61H80.9622L93.6457 241Z" fill="#D8F8FF"/>
<ellipse cx="93.6457" cy="275.359" rx="12.8432" ry="13.2853" fill="#D8F8FF"/>
<path d="M101 275C99.5776 279.352 98.3205 281.179 95 283" stroke="white" stroke-width="4" stroke-linecap="round"/>
<path d="M138.088 267.356L150.771 298.966H125.404L138.088 267.356Z" fill="#D8F8FF"/>
<ellipse cx="138.088" cy="301.715" rx="12.8432" ry="13.2853" fill="#D8F8FF"/>
<path d="M145 301C143.578 305.352 142.32 307.179 139 309" stroke="white" stroke-width="4" stroke-linecap="round"/>
<path d="M180.51 241L193.194 272.61H167.827L180.51 241Z" fill="#D8F8FF"/>
<ellipse cx="180.51" cy="275.359" rx="12.8432" ry="13.2853" fill="#D8F8FF"/>
<path d="M188 275C186.578 279.352 185.32 281.179 182 283" stroke="white" stroke-width="4" stroke-linecap="round"/>
<path d="M222.932 267.356L235.616 298.966H210.249L222.932 267.356Z" fill="#D8F8FF"/>
<ellipse cx="222.932" cy="301.715" rx="12.8432" ry="13.2853" fill="#D8F8FF"/>
<path d="M230 301C228.578 305.352 227.32 307.179 224 309" stroke="white" stroke-width="4" stroke-linecap="round"/>
<path d="M265.354 241L278.038 272.61H252.671L265.354 241Z" fill="#D8F8FF"/>
<ellipse cx="265.354" cy="275.359" rx="12.8432" ry="13.2853" fill="#D8F8FF"/>
<path d="M273 275C271.578 279.352 270.32 281.179 267 283" stroke="white" stroke-width="4" stroke-linecap="round"/>
<defs>
<filter id="filter0_d_37_5" x="71" y="29.1665" width="152.32" height="144.467" filterUnits="userSpaceOnUse" color-interpolation-filters="sRGB">
<feFlood flood-opacity="0" result="BackgroundImageFix"/>
<feColorMatrix in="SourceAlpha" type="matrix" values="0 0 0 0 0 0 0 0 0 0 0 0 0 0 0 0 0 0 127 0" result="hardAlpha"/>
<feOffset dy="4"/>
<feGaussianBlur stdDeviation="1.5"/>
<feComposite in2="hardAlpha" operator="out"/>
<feColorMatrix type="matrix" values="0 0 0 0 0 0 0 0 0 0 0 0 0 0 0 0 0 0 0.25 0"/>
<feBlend mode="normal" in2="BackgroundImageFix" result="effect1_dropShadow_37_5"/>
<feBlend mode="normal" in="SourceGraphic" in2="effect1_dropShadow_37_5" result="shape"/>
</filter>
<filter id="filter1_i_37_5" x="116.962" y="72.8633" width="22.6521" height="22.0654" filterUnits="userSpaceOnUse" color-interpolation-filters="sRGB">
<feFlood flood-opacity="0" result="BackgroundImageFix"/>
<feBlend mode="normal" in="SourceGraphic" in2="BackgroundImageFix" result="shape"/>
<feColorMatrix in="SourceAlpha" type="matrix" values="0 0 0 0 0 0 0 0 0 0 0 0 0 0 0 0 0 0 127 0" result="hardAlpha"/>
<feOffset dy="2"/>
<feGaussianBlur stdDeviation="2"/>
<feComposite in2="hardAlpha" operator="arithmetic" k2="-1" k3="1"/>
<feColorMatrix type="matrix" values="0 0 0 0 0 0 0 0 0 0 0 0 0 0 0 0 0 0 0.25 0"/>
<feBlend mode="normal" in2="shape" result="effect1_innerShadow_37_5"/>
</filter>
<filter id="filter2_i_37_5" x="89.687" y="80.632" width="22.6521" height="22.0654" filterUnits="userSpaceOnUse" color-interpolation-filters="sRGB">
<feFlood flood-opacity="0" result="BackgroundImageFix"/>
<feBlend mode="normal" in="SourceGraphic" in2="BackgroundImageFix" result="shape"/>
<feColorMatrix in="SourceAlpha" type="matrix" values="0 0 0 0 0 0 0 0 0 0 0 0 0 0 0 0 0 0 127 0" result="hardAlpha"/>
<feOffset dy="2"/>
<feGaussianBlur stdDeviation="2"/>
<feComposite in2="hardAlpha" operator="arithmetic" k2="-1" k3="1"/>
<feColorMatrix type="matrix" values="0 0 0 0 0 0 0 0 0 0 0 0 0 0 0 0 0 0 0.25 0"/>
<feBlend mode="normal" in2="shape" result="effect1_innerShadow_37_5"/>
</filter>
<filter id="filter3_d_37_5" x="30" y="85" width="298.511" height="144.873" filterUnits="userSpaceOnUse" color-interpolation-filters="sRGB">
<feFlood flood-opacity="0" result="BackgroundImageFix"/>
<feColorMatrix in="SourceAlpha" type="matrix" values="0 0 0 0 0 0 0 0 0 0 0 0 0 0 0 0 0 0 127 0" result="hardAlpha"/>
<feOffset dy="2"/>
<feGaussianBlur stdDeviation="2"/>
<feComposite in2="hardAlpha" operator="out"/>
<feColorMatrix type="matrix" values="0 0 0 0 0 0 0 0 0 0 0 0 0 0 0 0 0 0 0.25 0"/>
<feBlend mode="normal" in2="BackgroundImageFix" result="effect1_dropShadow_37_5"/>
<feBlend mode="normal" in="SourceGraphic" in2="effect1_dropShadow_37_5" result="shape"/>
</filter>
</defs>
</svg>
