<svg width="317" height="296" viewBox="0 0 317 296" fill="none" xmlns="http://www.w3.org/2000/svg">
<ellipse cx="54.9406" cy="39.3394" rx="54.9406" ry="39.3394" transform="matrix(0.819069 0.574891 -0.527121 0.849022 214.487 10.7358)" fill="#974D68"/>
<ellipse cx="23.7992" cy="28.6797" rx="23.7992" ry="28.6797" transform="matrix(0.819069 0.574891 -0.527121 0.849022 187.355 27.581)" fill="#29557E"/>
<ellipse cx="23.7992" cy="28.6797" rx="23.7992" ry="28.6797" transform="matrix(0.819069 0.574891 -0.527121 0.849022 261.595 79.6888)" fill="#29557E"/>
<ellipse cx="23.7992" cy="28.6797" rx="23.7992" ry="28.6797" transform="matrix(0.819069 0.574891 -0.527121 0.849022 237.54 62.8047)" fill="#29557E"/>
<ellipse cx="23.7992" cy="28.6797" rx="23.7992" ry="28.6797" transform="matrix(0.819069 0.574891 -0.527121 0.849022 211.825 44.7562)" fill="#29557E"/>
<g filter="url(#filter0_d_21_3)">
<path d="M216.633 53.4728C220.361 50.0328 226.226 53.8077 224.752 58.698L223.164 63.9613C222.209 67.1264 218.536 68.486 215.762 66.7008L213.337 65.1399C210.563 63.3547 210.207 59.4016 212.62 57.1752L216.633 53.4728Z" fill="#FFC045"/>
</g>
<path d="M229.99 55.715C225.524 53.309 221.938 53.944 217.076 55.2246L216.154 50.3209L213.387 45.4171" stroke="#974D68" stroke-width="3" stroke-linecap="round"/>
<rect x="216.154" y="46.8882" width="11.0689" height="6.86528" fill="#974D68"/>
<g filter="url(#filter1_d_21_3)">
<ellipse cx="35.7698" cy="36.2896" rx="35.7698" ry="36.2896" transform="matrix(0.999919 0.0127664 -0.0112928 0.999936 157.55 63.6043)" fill="#FFC045"/>
</g>
<g filter="url(#filter2_d_21_3)">
<path d="M188.564 48.0215C189.943 43.0976 196.954 43.1871 198.222 48.1448L199.516 53.2033C200.331 56.3896 197.903 59.4774 194.616 59.4354L191.914 59.4009C188.627 59.3589 186.269 56.2101 187.156 53.0455L188.564 48.0215Z" fill="#FFC045"/>
</g>
<g filter="url(#filter3_d_21_3)">
<path d="M162.722 57.1526C161.475 52.1947 167.512 48.7156 171.076 52.3377L174.91 56.2338C177.216 58.5775 176.676 62.5072 173.822 64.152L171.329 65.5889C168.475 67.2337 164.869 65.6935 164.062 62.4856L162.722 57.1526Z" fill="#FFC045"/>
</g>
<g filter="url(#filter4_d_21_3)">
<path d="M239.921 124.472C243.383 128.212 239.804 134.149 234.949 132.723L229.66 131.169C226.5 130.24 225.061 126.528 226.765 123.701L228.283 121.182C229.987 118.355 233.898 117.966 236.151 120.4L239.921 124.472Z" fill="#FFC045"/>
</g>
<g filter="url(#filter5_d_21_3)">
<path d="M145.56 77.2008C142.098 73.4616 145.677 67.5238 150.532 68.9505L155.821 70.5045C158.981 71.4331 160.42 75.1447 158.716 77.9722L157.198 80.491C155.494 83.3184 151.583 83.7074 149.33 81.2736L145.56 77.2008Z" fill="#FFC045"/>
</g>
<g filter="url(#filter6_d_21_3)">
<path d="M245.281 97.1846C250.132 98.6503 249.99 105.567 245.084 106.817L239.706 108.186C236.502 109.001 233.398 106.536 233.465 103.229L233.526 100.253C233.594 96.9465 236.796 94.621 239.963 95.578L245.281 97.1846Z" fill="#FFC045"/>
</g>
<g filter="url(#filter7_d_21_3)">
<path d="M236.044 70.5942C240.946 69.3551 244.313 75.4249 240.722 79.0286L236.81 82.955C234.473 85.3009 230.578 84.7625 228.974 81.8718L227.545 79.2955C225.942 76.4047 227.511 72.7509 230.702 71.9442L236.044 70.5942Z" fill="#FFC045"/>
</g>
<g filter="url(#filter8_i_21_3)">
<ellipse cx="8.86467" cy="9.16115" rx="8.86467" ry="9.16115" transform="matrix(0.95078 0.311222 -0.325416 0.945105 203.069 79.4384)" fill="#D9D9D9"/>
</g>
<ellipse cx="6.36053" cy="6.72453" rx="6.36053" ry="6.72453" transform="matrix(0.953594 0.302451 -0.334687 0.94185 203.501 82)" fill="#1E1E1E"/>
<g filter="url(#filter9_i_21_3)">
<ellipse cx="8.86467" cy="9.16115" rx="8.86467" ry="9.16115" transform="matrix(0.95078 0.311222 -0.325416 0.945105 179.686 73.3686)" fill="#D9D9D9"/>
</g>
<ellipse cx="6.36053" cy="6.72453" rx="6.36053" ry="6.72453" transform="matrix(0.953594 0.302451 -0.334687 0.94185 182.501 77)" fill="#1E1E1E"/>
<path d="M216.154 55.715C230.1 41.4013 239.633 39.2229 258.585 41.9845" stroke="#B5758C" stroke-width="3" stroke-linecap="round"/>
<path d="M200.213 36.6053C222.919 26.7451 235.708 29.0293 258.585 41.9845" stroke="#B5758C" stroke-width="3" stroke-linecap="round"/>
<path d="M265.964 89.0607C272.265 70.4536 270.014 60.3995 259.427 42.8972" stroke="#B5758C" stroke-width="3" stroke-linecap="round"/>
<path d="M288.102 98.8682C287.357 72.0833 280.052 60.0709 259.196 42.0625" stroke="#B5758C" stroke-width="3" stroke-linecap="round"/>
<path d="M213.94 116.162L259.695 42.4662" stroke="#B5758C" stroke-width="3" stroke-linecap="round"/>
<g filter="url(#filter10_d_21_3)">
<rect width="199.165" height="50.4737" rx="25.2368" transform="matrix(-1 0 0 1 231.032 163.88)" fill="#D9D9D9"/>
<ellipse cx="50.6337" cy="48.0135" rx="50.6337" ry="48.0135" transform="matrix(-0.867518 -0.497406 -0.502472 0.864593 276.111 149.227)" fill="#D9D9D9"/>
<ellipse cx="53.2747" cy="59.8357" rx="53.2747" ry="59.8357" transform="matrix(-1 0 0 1 237.589 94.6825)" fill="#D9D9D9"/>
<ellipse cx="53.2747" cy="59.8357" rx="53.2747" ry="59.8357" transform="matrix(-1 0 0 1 110.549 94.6825)" fill="#D9D9D9"/>
<ellipse cx="53.2747" cy="59.8357" rx="53.2747" ry="59.8357" transform="matrix(-1 0 0 1 172.84 69.4456)" fill="#D9D9D9"/>
</g>
<path d="M57.0385 224.405L68.6215 254.987H45.4555L57.0385 224.405Z" fill="#D8F8FF"/>
<ellipse cx="57.0385" cy="257.647" rx="11.7288" ry="12.8535" fill="#D8F8FF"/>
<path d="M66 258C64.5776 262.352 63.3205 264.179 60 266" stroke="white" stroke-width="4" stroke-linecap="round"/>
<path d="M97.6244 249.905L109.207 280.487H86.0414L97.6244 249.905Z" fill="#D8F8FF"/>
<ellipse cx="97.6244" cy="283.146" rx="11.7288" ry="12.8535" fill="#D8F8FF"/>
<path d="M106 284C104.578 288.352 103.32 290.179 100 292" stroke="white" stroke-width="4" stroke-linecap="round"/>
<path d="M136.366 224.405L147.949 254.987H124.783L136.366 224.405Z" fill="#D8F8FF"/>
<ellipse cx="136.366" cy="257.647" rx="11.7288" ry="12.8535" fill="#D8F8FF"/>
<path d="M145 258C143.578 262.352 142.32 264.179 139 266" stroke="white" stroke-width="4" stroke-linecap="round"/>
<path d="M175.107 249.905L186.69 280.487H163.524L175.107 249.905Z" fill="#D8F8FF"/>
<ellipse cx="175.107" cy="283.146" rx="11.7288" ry="12.8535" fill="#D8F8FF"/>
<path d="M184 284C182.578 288.352 181.32 290.179 178 292" stroke="white" stroke-width="4" stroke-linecap="round"/>
<path d="M213.848 224.405L225.431 254.987H202.265L213.848 224.405Z" fill="#D8F8FF"/>
<ellipse cx="213.848" cy="257.647" rx="11.7288" ry="12.8535" fill="#D8F8FF"/>
<path d="M222 258C220.578 262.352 219.32 264.179 216 266" stroke="white" stroke-width="4" stroke-linecap="round"/>
<defs>
<filter id="filter0_d_21_3" x="207.013" y="52.1442" width="21.9717" height="23.3505" filterUnits="userSpaceOnUse" color-interpolation-filters="sRGB">
<feFlood flood-opacity="0" result="BackgroundImageFix"/>
<feColorMatrix in="SourceAlpha" type="matrix" values="0 0 0 0 0 0 0 0 0 0 0 0 0 0 0 0 0 0 127 0" result="hardAlpha"/>
<feOffset dy="4"/>
<feGaussianBlur stdDeviation="2"/>
<feComposite in2="hardAlpha" operator="out"/>
<feColorMatrix type="matrix" values="0 0 0 0 0 0 0 0 0 0 0 0 0 0 0 0 0 0 0.25 0"/>
<feBlend mode="normal" in2="BackgroundImageFix" result="effect1_dropShadow_21_3"/>
<feBlend mode="normal" in="SourceGraphic" in2="effect1_dropShadow_21_3" result="shape"/>
</filter>
<filter id="filter1_d_21_3" x="153.138" y="64.058" width="79.5386" height="80.5805" filterUnits="userSpaceOnUse" color-interpolation-filters="sRGB">
<feFlood flood-opacity="0" result="BackgroundImageFix"/>
<feColorMatrix in="SourceAlpha" type="matrix" values="0 0 0 0 0 0 0 0 0 0 0 0 0 0 0 0 0 0 127 0" result="hardAlpha"/>
<feOffset dy="4"/>
<feGaussianBlur stdDeviation="2"/>
<feComposite in2="hardAlpha" operator="out"/>
<feColorMatrix type="matrix" values="0 0 0 0 0 0 0 0 0 0 0 0 0 0 0 0 0 0 0.25 0"/>
<feBlend mode="normal" in2="BackgroundImageFix" result="effect1_dropShadow_21_3"/>
<feBlend mode="normal" in="SourceGraphic" in2="effect1_dropShadow_21_3" result="shape"/>
</filter>
<filter id="filter2_d_21_3" x="182.968" y="44.3771" width="20.7069" height="23.0587" filterUnits="userSpaceOnUse" color-interpolation-filters="sRGB">
<feFlood flood-opacity="0" result="BackgroundImageFix"/>
<feColorMatrix in="SourceAlpha" type="matrix" values="0 0 0 0 0 0 0 0 0 0 0 0 0 0 0 0 0 0 127 0" result="hardAlpha"/>
<feOffset dy="4"/>
<feGaussianBlur stdDeviation="2"/>
<feComposite in2="hardAlpha" operator="out"/>
<feColorMatrix type="matrix" values="0 0 0 0 0 0 0 0 0 0 0 0 0 0 0 0 0 0 0.25 0"/>
<feBlend mode="normal" in2="BackgroundImageFix" result="effect1_dropShadow_21_3"/>
<feBlend mode="normal" in="SourceGraphic" in2="effect1_dropShadow_21_3" result="shape"/>
</filter>
<filter id="filter3_d_21_3" x="158.555" y="50.8409" width="21.7939" height="23.4139" filterUnits="userSpaceOnUse" color-interpolation-filters="sRGB">
<feFlood flood-opacity="0" result="BackgroundImageFix"/>
<feColorMatrix in="SourceAlpha" type="matrix" values="0 0 0 0 0 0 0 0 0 0 0 0 0 0 0 0 0 0 127 0" result="hardAlpha"/>
<feOffset dy="4"/>
<feGaussianBlur stdDeviation="2"/>
<feComposite in2="hardAlpha" operator="out"/>
<feColorMatrix type="matrix" values="0 0 0 0 0 0 0 0 0 0 0 0 0 0 0 0 0 0 0.25 0"/>
<feBlend mode="normal" in2="BackgroundImageFix" result="effect1_dropShadow_21_3"/>
<feBlend mode="normal" in="SourceGraphic" in2="effect1_dropShadow_21_3" result="shape"/>
</filter>
<filter id="filter4_d_21_3" x="222.041" y="118.794" width="23.259" height="22.1461" filterUnits="userSpaceOnUse" color-interpolation-filters="sRGB">
<feFlood flood-opacity="0" result="BackgroundImageFix"/>
<feColorMatrix in="SourceAlpha" type="matrix" values="0 0 0 0 0 0 0 0 0 0 0 0 0 0 0 0 0 0 127 0" result="hardAlpha"/>
<feOffset dy="4"/>
<feGaussianBlur stdDeviation="2"/>
<feComposite in2="hardAlpha" operator="out"/>
<feColorMatrix type="matrix" values="0 0 0 0 0 0 0 0 0 0 0 0 0 0 0 0 0 0 0.25 0"/>
<feBlend mode="normal" in2="BackgroundImageFix" result="effect1_dropShadow_21_3"/>
<feBlend mode="normal" in="SourceGraphic" in2="effect1_dropShadow_21_3" result="shape"/>
</filter>
<filter id="filter5_d_21_3" x="140.181" y="68.7336" width="23.259" height="22.1461" filterUnits="userSpaceOnUse" color-interpolation-filters="sRGB">
<feFlood flood-opacity="0" result="BackgroundImageFix"/>
<feColorMatrix in="SourceAlpha" type="matrix" values="0 0 0 0 0 0 0 0 0 0 0 0 0 0 0 0 0 0 127 0" result="hardAlpha"/>
<feOffset dy="4"/>
<feGaussianBlur stdDeviation="2"/>
<feComposite in2="hardAlpha" operator="out"/>
<feColorMatrix type="matrix" values="0 0 0 0 0 0 0 0 0 0 0 0 0 0 0 0 0 0 0.25 0"/>
<feBlend mode="normal" in2="BackgroundImageFix" result="effect1_dropShadow_21_3"/>
<feBlend mode="normal" in="SourceGraphic" in2="effect1_dropShadow_21_3" result="shape"/>
</filter>
<filter id="filter6_d_21_3" x="229.464" y="95.361" width="23.3781" height="20.9818" filterUnits="userSpaceOnUse" color-interpolation-filters="sRGB">
<feFlood flood-opacity="0" result="BackgroundImageFix"/>
<feColorMatrix in="SourceAlpha" type="matrix" values="0 0 0 0 0 0 0 0 0 0 0 0 0 0 0 0 0 0 127 0" result="hardAlpha"/>
<feOffset dy="4"/>
<feGaussianBlur stdDeviation="2"/>
<feComposite in2="hardAlpha" operator="out"/>
<feColorMatrix type="matrix" values="0 0 0 0 0 0 0 0 0 0 0 0 0 0 0 0 0 0 0.25 0"/>
<feBlend mode="normal" in2="BackgroundImageFix" result="effect1_dropShadow_21_3"/>
<feBlend mode="normal" in="SourceGraphic" in2="effect1_dropShadow_21_3" result="shape"/>
</filter>
<filter id="filter7_d_21_3" x="222.91" y="70.4301" width="23.3134" height="21.9939" filterUnits="userSpaceOnUse" color-interpolation-filters="sRGB">
<feFlood flood-opacity="0" result="BackgroundImageFix"/>
<feColorMatrix in="SourceAlpha" type="matrix" values="0 0 0 0 0 0 0 0 0 0 0 0 0 0 0 0 0 0 127 0" result="hardAlpha"/>
<feOffset dy="4"/>
<feGaussianBlur stdDeviation="2"/>
<feComposite in2="hardAlpha" operator="out"/>
<feColorMatrix type="matrix" values="0 0 0 0 0 0 0 0 0 0 0 0 0 0 0 0 0 0 0.25 0"/>
<feBlend mode="normal" in2="BackgroundImageFix" result="effect1_dropShadow_21_3"/>
<feBlend mode="normal" in="SourceGraphic" in2="effect1_dropShadow_21_3" result="shape"/>
</filter>
<filter id="filter8_i_21_3" x="199.574" y="81.7659" width="17.8849" height="20.1792" filterUnits="userSpaceOnUse" color-interpolation-filters="sRGB">
<feFlood flood-opacity="0" result="BackgroundImageFix"/>
<feBlend mode="normal" in="SourceGraphic" in2="BackgroundImageFix" result="shape"/>
<feColorMatrix in="SourceAlpha" type="matrix" values="0 0 0 0 0 0 0 0 0 0 0 0 0 0 0 0 0 0 127 0" result="hardAlpha"/>
<feOffset dy="2"/>
<feGaussianBlur stdDeviation="2"/>
<feComposite in2="hardAlpha" operator="arithmetic" k2="-1" k3="1"/>
<feColorMatrix type="matrix" values="0 0 0 0 0 0 0 0 0 0 0 0 0 0 0 0 0 0 0.25 0"/>
<feBlend mode="normal" in2="shape" result="effect1_innerShadow_21_3"/>
</filter>
<filter id="filter9_i_21_3" x="176.19" y="75.6961" width="17.8849" height="20.1792" filterUnits="userSpaceOnUse" color-interpolation-filters="sRGB">
<feFlood flood-opacity="0" result="BackgroundImageFix"/>
<feBlend mode="normal" in="SourceGraphic" in2="BackgroundImageFix" result="shape"/>
<feColorMatrix in="SourceAlpha" type="matrix" values="0 0 0 0 0 0 0 0 0 0 0 0 0 0 0 0 0 0 127 0" result="hardAlpha"/>
<feOffset dy="2"/>
<feGaussianBlur stdDeviation="2"/>
<feComposite in2="hardAlpha" operator="arithmetic" k2="-1" k3="1"/>
<feColorMatrix type="matrix" values="0 0 0 0 0 0 0 0 0 0 0 0 0 0 0 0 0 0 0.25 0"/>
<feBlend mode="normal" in2="shape" result="effect1_innerShadow_21_3"/>
</filter>
<filter id="filter10_d_21_3" x="0" y="67.4456" width="262.184" height="152.908" filterUnits="userSpaceOnUse" color-interpolation-filters="sRGB">
<feFlood flood-opacity="0" result="BackgroundImageFix"/>
<feColorMatrix in="SourceAlpha" type="matrix" values="0 0 0 0 0 0 0 0 0 0 0 0 0 0 0 0 0 0 127 0" result="hardAlpha"/>
<feOffset dy="2"/>
<feGaussianBlur stdDeviation="2"/>
<feComposite in2="hardAlpha" operator="out"/>
<feColorMatrix type="matrix" values="0 0 0 0 0 0 0 0 0 0 0 0 0 0 0 0 0 0 0.25 0"/>
<feBlend mode="normal" in2="BackgroundImageFix" result="effect1_dropShadow_21_3"/>
<feBlend mode="normal" in="SourceGraphic" in2="effect1_dropShadow_21_3" result="shape"/>
</filter>
</defs>
</svg>
