<svg width="360" height="321" viewBox="0 0 360 321" fill="none" xmlns="http://www.w3.org/2000/svg">
<path d="M66.3749 187L77.958 217.583H54.7919L66.3749 187Z" fill="#D8F8FF"/>
<ellipse cx="66.3749" cy="220.242" rx="11.7288" ry="12.8535" fill="#D8F8FF"/>
<path d="M75 221C73.5776 225.352 72.3205 227.179 69 229" stroke="white" stroke-width="4" stroke-linecap="round"/>
<path d="M115.375 236L126.958 266.583H103.792L115.375 236Z" fill="#D8F8FF"/>
<ellipse cx="115.375" cy="269.242" rx="11.7288" ry="12.8535" fill="#D8F8FF"/>
<path d="M124 270C122.578 274.352 121.32 276.179 118 278" stroke="white" stroke-width="4" stroke-linecap="round"/>
<path d="M239.375 236L250.958 266.583H227.792L239.375 236Z" fill="#D8F8FF"/>
<ellipse cx="239.375" cy="269.242" rx="11.7288" ry="12.8535" fill="#D8F8FF"/>
<path d="M248 270C246.578 274.352 245.32 276.179 242 278" stroke="white" stroke-width="4" stroke-linecap="round"/>
<path d="M293.375 187L304.958 217.583H281.792L293.375 187Z" fill="#D8F8FF"/>
<ellipse cx="293.375" cy="220.242" rx="11.7288" ry="12.8535" fill="#D8F8FF"/>
<path d="M302 221C300.578 225.352 299.32 227.179 296 229" stroke="white" stroke-width="4" stroke-linecap="round"/>
<g filter="url(#filter0_d_21_4)">
<path d="M127 230.64L173.724 173.668L222.35 120L196.272 199.058L265 193.072L133.791 313L187.579 222.796L127 230.64Z" fill="#FFC045"/>
</g>
<g filter="url(#filter1_d_21_4)">
<rect width="219.185" height="55.4715" rx="27.7357" transform="matrix(-1 0 0 1 310.39 107.785)" fill="#969696"/>
<ellipse cx="55.7045" cy="52.7859" rx="55.7045" ry="52.7859" transform="matrix(-0.867811 -0.496895 -0.502985 0.864295 360 91.6807)" fill="#969696"/>
<ellipse cx="58.6298" cy="65.7605" rx="58.6298" ry="65.7605" transform="matrix(-1 0 0 1 317.606 31.7357)" fill="#969696"/>
<ellipse cx="58.6298" cy="65.7605" rx="58.6298" ry="65.7605" transform="matrix(-1 0 0 1 177.797 31.7357)" fill="#969696"/>
<ellipse cx="58.6298" cy="65.7605" rx="58.6298" ry="65.7605" transform="matrix(-1 0 0 1 246.349 4)" fill="#969696"/>
</g>
<g filter="url(#filter2_d_21_4)">
<rect width="186.903" height="47.3312" rx="23.6656" transform="matrix(-1 0 0 1 236.054 135.691)" fill="#A6A6A6"/>
<ellipse cx="47.5075" cy="45.0326" rx="47.5075" ry="45.0326" transform="matrix(-0.867676 -0.497131 -0.502748 0.864433 278.357 121.95)" fill="#A6A6A6"/>
<ellipse cx="49.9945" cy="56.1104" rx="49.9945" ry="56.1104" transform="matrix(-1 0 0 1 242.207 70.8017)" fill="#A6A6A6"/>
<ellipse cx="49.9945" cy="56.1104" rx="49.9945" ry="56.1104" transform="matrix(-1 0 0 1 122.989 70.8017)" fill="#A6A6A6"/>
<ellipse cx="49.9945" cy="56.1104" rx="49.9945" ry="56.1104" transform="matrix(-1 0 0 1 181.444 47.1361)" fill="#A6A6A6"/>
</g>
<g filter="url(#filter3_i_21_4)">
<path d="M151 209C151 209 156.753 200 163 209" stroke="#A24D00" stroke-width="3" stroke-linecap="round"/>
</g>
<g filter="url(#filter4_i_21_4)">
<path d="M169 216C169 216 164.205 222.75 159 216" stroke="#A24D00" stroke-width="3" stroke-linecap="round"/>
</g>
<g filter="url(#filter5_i_21_4)">
<path d="M179 216C179 216 174.205 222.75 169 216" stroke="#A24D00" stroke-width="3" stroke-linecap="round"/>
</g>
<g filter="url(#filter6_i_21_4)">
<path d="M175 209C175 209 180.753 200 187 209" stroke="#A24D00" stroke-width="3" stroke-linecap="round"/>
</g>
<defs>
<filter id="filter0_d_21_4" x="123" y="120" width="146" height="201" filterUnits="userSpaceOnUse" color-interpolation-filters="sRGB">
<feFlood flood-opacity="0" result="BackgroundImageFix"/>
<feColorMatrix in="SourceAlpha" type="matrix" values="0 0 0 0 0 0 0 0 0 0 0 0 0 0 0 0 0 0 127 0" result="hardAlpha"/>
<feOffset dy="4"/>
<feGaussianBlur stdDeviation="2"/>
<feComposite in2="hardAlpha" operator="out"/>
<feColorMatrix type="matrix" values="0 0 0 0 0 0 0 0 0 0 0 0 0 0 0 0 0 0 0.25 0"/>
<feBlend mode="normal" in2="BackgroundImageFix" result="effect1_dropShadow_21_4"/>
<feBlend mode="normal" in="SourceGraphic" in2="effect1_dropShadow_21_4" result="shape"/>
</filter>
<filter id="filter1_d_21_4" x="56.5371" y="2" width="287.734" height="167.257" filterUnits="userSpaceOnUse" color-interpolation-filters="sRGB">
<feFlood flood-opacity="0" result="BackgroundImageFix"/>
<feColorMatrix in="SourceAlpha" type="matrix" values="0 0 0 0 0 0 0 0 0 0 0 0 0 0 0 0 0 0 127 0" result="hardAlpha"/>
<feOffset dy="2"/>
<feGaussianBlur stdDeviation="2"/>
<feComposite in2="hardAlpha" operator="out"/>
<feColorMatrix type="matrix" values="0 0 0 0 0 0 0 0 0 0 0 0 0 0 0 0 0 0 0.25 0"/>
<feBlend mode="normal" in2="BackgroundImageFix" result="effect1_dropShadow_21_4"/>
<feBlend mode="normal" in="SourceGraphic" in2="effect1_dropShadow_21_4" result="shape"/>
</filter>
<filter id="filter2_d_21_4" x="19.0001" y="45.1361" width="246.533" height="143.886" filterUnits="userSpaceOnUse" color-interpolation-filters="sRGB">
<feFlood flood-opacity="0" result="BackgroundImageFix"/>
<feColorMatrix in="SourceAlpha" type="matrix" values="0 0 0 0 0 0 0 0 0 0 0 0 0 0 0 0 0 0 127 0" result="hardAlpha"/>
<feOffset dy="2"/>
<feGaussianBlur stdDeviation="2"/>
<feComposite in2="hardAlpha" operator="out"/>
<feColorMatrix type="matrix" values="0 0 0 0 0 0 0 0 0 0 0 0 0 0 0 0 0 0 0.25 0"/>
<feBlend mode="normal" in2="BackgroundImageFix" result="effect1_dropShadow_21_4"/>
<feBlend mode="normal" in="SourceGraphic" in2="effect1_dropShadow_21_4" result="shape"/>
</filter>
<filter id="filter3_i_21_4" x="149.5" y="203.5" width="15.0004" height="11.0005" filterUnits="userSpaceOnUse" color-interpolation-filters="sRGB">
<feFlood flood-opacity="0" result="BackgroundImageFix"/>
<feBlend mode="normal" in="SourceGraphic" in2="BackgroundImageFix" result="shape"/>
<feColorMatrix in="SourceAlpha" type="matrix" values="0 0 0 0 0 0 0 0 0 0 0 0 0 0 0 0 0 0 127 0" result="hardAlpha"/>
<feOffset dy="4"/>
<feGaussianBlur stdDeviation="2"/>
<feComposite in2="hardAlpha" operator="arithmetic" k2="-1" k3="1"/>
<feColorMatrix type="matrix" values="0 0 0 0 1 0 0 0 0 0.72 0 0 0 0 0 0 0 0 0.4 0"/>
<feBlend mode="normal" in2="shape" result="effect1_innerShadow_21_4"/>
</filter>
<filter id="filter4_i_21_4" x="157.5" y="214.5" width="13.0002" height="10.0003" filterUnits="userSpaceOnUse" color-interpolation-filters="sRGB">
<feFlood flood-opacity="0" result="BackgroundImageFix"/>
<feBlend mode="normal" in="SourceGraphic" in2="BackgroundImageFix" result="shape"/>
<feColorMatrix in="SourceAlpha" type="matrix" values="0 0 0 0 0 0 0 0 0 0 0 0 0 0 0 0 0 0 127 0" result="hardAlpha"/>
<feOffset dy="4"/>
<feGaussianBlur stdDeviation="2"/>
<feComposite in2="hardAlpha" operator="arithmetic" k2="-1" k3="1"/>
<feColorMatrix type="matrix" values="0 0 0 0 1 0 0 0 0 0.72 0 0 0 0 0 0 0 0 0.4 0"/>
<feBlend mode="normal" in2="shape" result="effect1_innerShadow_21_4"/>
</filter>
<filter id="filter5_i_21_4" x="167.5" y="214.5" width="13.0002" height="10.0003" filterUnits="userSpaceOnUse" color-interpolation-filters="sRGB">
<feFlood flood-opacity="0" result="BackgroundImageFix"/>
<feBlend mode="normal" in="SourceGraphic" in2="BackgroundImageFix" result="shape"/>
<feColorMatrix in="SourceAlpha" type="matrix" values="0 0 0 0 0 0 0 0 0 0 0 0 0 0 0 0 0 0 127 0" result="hardAlpha"/>
<feOffset dy="4"/>
<feGaussianBlur stdDeviation="2"/>
<feComposite in2="hardAlpha" operator="arithmetic" k2="-1" k3="1"/>
<feColorMatrix type="matrix" values="0 0 0 0 1 0 0 0 0 0.72 0 0 0 0 0 0 0 0 0.4 0"/>
<feBlend mode="normal" in2="shape" result="effect1_innerShadow_21_4"/>
</filter>
<filter id="filter6_i_21_4" x="173.5" y="203.5" width="15.0004" height="11.0005" filterUnits="userSpaceOnUse" color-interpolation-filters="sRGB">
<feFlood flood-opacity="0" result="BackgroundImageFix"/>
<feBlend mode="normal" in="SourceGraphic" in2="BackgroundImageFix" result="shape"/>
<feColorMatrix in="SourceAlpha" type="matrix" values="0 0 0 0 0 0 0 0 0 0 0 0 0 0 0 0 0 0 127 0" result="hardAlpha"/>
<feOffset dy="4"/>
<feGaussianBlur stdDeviation="2"/>
<feComposite in2="hardAlpha" operator="arithmetic" k2="-1" k3="1"/>
<feColorMatrix type="matrix" values="0 0 0 0 1 0 0 0 0 0.72 0 0 0 0 0 0 0 0 0.4 0"/>
<feBlend mode="normal" in2="shape" result="effect1_innerShadow_21_4"/>
</filter>
</defs>
</svg>
